<svg xmlns="http://www.w3.org/2000/svg" fill="#fff" width="512" height="512" viewBox="0 0 512 512"><path d="M472 238v144c0 33.352-23.088 61.343-54 69.426V168.574c30.912 8.083 54 36.074 54 69.426zM94 168.574C63.088 176.657 40 204.648 40 238v144c0 33.352 23.088 61.343 54 69.426V168.574zM382 166v288H130V166h36v-18c.068-49.621 40.38-89.932 90-90 49.62.068 89.932 40.38 90 90v18h36zm-72-18c-.004-14.837-6.034-28.252-15.877-38.123C284.252 100.034 270.837 94.004 256 94c-14.837.004-28.252 6.034-38.123 15.877-9.844 9.87-15.873 23.286-15.877 38.123v18h108v-18z"/></svg>