<svg xmlns="http://www.w3.org/2000/svg" fill="#fff" width="512" height="512" viewBox="0 0 512 512"><path d="M415.4 256c-4.1 0-8.2-1.4-11.6-4.3l-149-126.4-146.4 126.3c-7.5 6.5-18.9 5.6-25.4-1.9s-5.7-18.9 1.9-25.4L243 88c6.7-5.8 16.6-5.8 23.4-.1L427 224.2c7.6 6.4 8.5 17.8 2.1 25.4-3.6 4.2-8.6 6.4-13.7 6.4z"/><path d="M380.9 266.6l-114.3-98c-6.8-5.8-16.7-5.8-23.4 0l-114.3 98c-4 3.4-6.3 8.4-6.3 13.7v130.1c0 9.9 8.1 18 18 18h228.6c9.9 0 18-8.1 18-18V280.3c0-5.3-2.3-10.3-6.3-13.7zm-54.7 71.9h-47.9v47.9h-44.7v-47.9h-47.9v-44.7h47.9v-47.9h44.7v47.9h47.9v44.7z"/></svg>