<svg xmlns="http://www.w3.org/2000/svg" fill="#fff" width="512" height="512" viewBox="0 0 512 512"><path d="M131.906 152.781c-19.641 0-35.547 15.859-35.547 35.453 0 19.562 15.906 35.547 35.547 35.547 19.578 0 35.484-15.984 35.484-35.547.001-19.593-15.906-35.453-35.484-35.453m265.282 5.578c-15.688 0-28.438 12.688-28.438 28.391 0 15.656 12.75 28.422 28.438 28.422 15.642 0 28.392-12.766 28.392-28.422-.002-15.703-12.752-28.391-28.392-28.391m-25.876 73.969l-1.75.75c-7.812 4.078.405 21.984-5.281 29.547 22.438 17.125 27.391 30 34.812 60.312 31.781-.422 54.859-7.906 54.859-17.109l-.172-1.031.172-4.531c0-30.719-12.859-55.938-34.375-67.188l-.703-.312-.094.016c-6.406 3.516-13.781 5.484-21.595 5.484-7.858 0-18.594-1.969-25-5.484l-.873-.454m-267.531 17.453l-2.203 1.016c-26.875 14.078-43.531 52.641-43.531 91l.266 5.672-.266 1.328c0 11.797 22.328 9.594 63.703 9.594 2.469 0 4.891-.047 7.297-.078.156-39.812 8.922-75.655 38.719-92.938-2.281-3.906-2.141-14.906-2.141-14.906-8.016 4.391-23.984 6.828-33.719 6.828-9.812 0-19.016-2.438-27.031-6.828l-1.094-.688m133.188-1.078l-2.75 1.266c-33.609 17.578-50.469 50.891-50.469 98.828l.312 7.109-.312 1.625c0 14.797 35.234 19.453 86.922 19.453 51.719 0 93.641-4.656 93.641-19.453l-.266-2.219.266-6.517c0-47.938-23.562-81.25-57.188-98.828l-1.109-.484-.172.062c-10.016 5.453-21.547 1.781-33.75 1.781-12.25 0-23.719 3.672-33.75-1.781l-1.375-.842m35.125-113.687c-24.5 0-44.391 19.859-44.391 44.344s19.891 44.406 44.391 44.406c24.516 0 44.392-19.922 44.392-44.406-.001-24.484-19.877-44.344-44.392-44.344"/></svg>