<svg xmlns="http://www.w3.org/2000/svg" fill="#fff" width="512" height="512" viewBox="0 0 512 512"><path d="M361.859 394.844l59.203 52.781c14.797 13.172 10.688 23.953-9.109 23.953H100.297c-19.797 0-23.906-10.781-9.125-23.953l59.188-52.781C99 374.516 61.906 332.5 51.422 291.734h409.391c-10.469 40.766-47.563 82.782-98.954 103.11zm-80.984-280.156c8.594 5.578 20.062 3.125 25.641-5.469 5.562-8.578 3.109-20.047-5.483-25.625-8.578-5.578-20.048-3.125-25.609 5.453-5.58 8.594-3.143 20.078 5.451 25.641zM427.906 91c7.108-7.375 6.906-19.109-.484-26.234-7.344-7.094-19.094-6.891-26.188.5-7.125 7.359-6.906 19.078.453 26.203 7.375 7.093 19.125 6.89 26.219-.469zm-76.625-13.766c10.062-1.797 16.781-11.406 15-21.5-1.781-10.078-11.422-16.812-21.5-15.016-10.047 1.781-16.797 11.406-15 21.484 1.781 10.095 11.407 16.829 21.5 15.032zm72.563 65.844c0 4.891 1.969 9.672 5.438 13.109a18.513 18.513 0 0 0 13.078 5.438c4.89 0 9.672-1.969 13.108-5.438 3.453-3.438 5.453-8.219 5.453-13.109 0-4.89-2-9.656-5.453-13.094-3.438-3.469-8.219-5.438-13.108-5.438a18.51 18.51 0 0 0-13.078 5.438c-3.47 3.438-5.438 8.204-5.438 13.094zM228.562 170c2.156 10.016 12.031 16.359 22.047 14.172 2-.438 3.719-1.359 5.391-2.359 1.656 1 3.375 1.922 5.359 2.359 10.016 2.188 19.891-4.156 22.047-14.172 2.188-10-4.156-19.875-14.141-22.047-4.734-1.047-9.392-.047-13.267 2.234-3.891-2.281-8.531-3.281-13.266-2.234-10.013 2.172-16.357 12.047-14.17 22.047zm-158.937-8.375c4.875 0 9.641-1.969 13.109-5.438 3.438-3.438 5.406-8.219 5.406-13.109 0-4.89-1.969-9.656-5.406-13.094a18.64 18.64 0 0 0-13.109-5.438c-4.891 0-9.672 1.969-13.125 5.438-3.453 3.438-5.422 8.203-5.422 13.094s1.969 9.672 5.422 13.109c3.453 3.469 8.234 5.438 13.125 5.438zm91.094-84.391c10.078 1.797 19.688-4.938 21.484-15.031C184 52.125 177.266 42.5 167.172 40.719c-10.062-1.797-19.688 4.938-21.469 15.016-1.781 10.093 4.938 19.703 15.016 21.499zm94 141.75c-10.219.578-18.031 9.344-17.453 19.578.594 10.219 9.344 18.016 19.562 17.438 10.234-.578 18.047-9.344 17.469-19.562-.594-10.235-9.344-18.032-19.578-17.454zM110.297 91.453c7.359-7.109 7.578-18.828.469-26.188-7.094-7.391-18.844-7.594-26.219-.5-7.375 7.125-7.578 18.844-.484 26.203 7.109 7.391 18.843 7.594 26.234.485zm120.828 23.235c8.578-5.562 11.031-17.047 5.453-25.641-5.578-8.578-17.047-11.031-25.641-5.453-8.594 5.578-11.031 17.047-5.453 25.625 5.563 8.593 17.047 11.047 25.641 5.469z"/></svg>