<svg xmlns="http://www.w3.org/2000/svg" fill="#fff" width="512" height="512" viewBox="0 0 512 512"><path d="M457.375 328c0-73.688-36-72-36-72s36-3.938 36-69.75c0-67.5-18-51.188-18-51.188l36-77.062c0-9.953-8.047-18-18-18l-78.188 36s10.125-18-50.062-18c-67.5 0-74.812 36-74.812 36s-6.188-36-74.812-36c-58.5 0-45.016 18-45.016 18l-79.86-36c-9.953 0-18 8.047-18 18l36 78.75s-18-19.688-18 49.5c0 70.312 36 69.75 36 69.75s-36-2.812-36 72c0 65.25 18 46.688 18 46.688l-36 79.312c0 9.953 8.047 18 18 18l76.5-36s-9.562 18 48.375 18c63.562 0 74.812-36 74.812-36s7.875 36 74.812 36c56.25 0 50.625-18 50.625-18l77.625 36c9.953 0 18-8.047 18-18l-36-78.75c.001 0 18.001 16.875 18.001-47.25zM400 400H111.438V112H400v288zm-258.062-74.672c-1.969-1.703-2.938-3.781-2.938-6.219v-1.469c.25-.953.5-1.703.734-2.188l74.953-131.641c.719-1.219 1.828-2.203 3.297-2.938.953-.719 2.125-1.094 3.469-1.094 1.344 0 2.5.25 3.469.734 1.453.5 2.562 1.344 3.281 2.547l43.953 62.203-12.516 16.125c-.5.75-.859 1.469-1.109 2.202-.25.734-.375 1.578-.375 2.562 0 1.953 9.312 7.656 11.016 9.234 1.703 1.594 3.766 2.375 6.219 2.375a5.345 5.345 0 0 0 3.281-1.094c.484-.484 1.578-1.453 3.297-2.922l24.844-38.391c2.453-1.703 3.781-2.688 4.031-2.938.734-.469 1.703-.719 2.938-.719 1.688 0 3.03.25 4 .719 1.233.75 2.203 1.703 2.938 2.938l50.828 79.734c.953.97 1.453 2.188 1.453 3.656 0 2.188-.859 4.155-2.547 5.844-1.719 1.97-3.656 2.812-5.859 2.562H147.047c-1.453.256-3.172-.369-5.109-1.822z"/></svg>