<svg xmlns="http://www.w3.org/2000/svg" fill="#fff" width="512" height="512" viewBox="0 0 512 512"><path d="M372.2 383.9l-58.6-138v-33.4c11.2-1.1 20-10.2 20-21.6 0-12.2-9.9-22-22-22H200.4c-12.1 0-22 9.9-22 22 0 10.9 8.1 19.6 18.5 21.3v37.2l-57.1 134.5c-4.9 11.5-3.7 24.6 3.2 35.1 6.9 10.4 18.5 16.7 31 16.7h164c12.5 0 24.1-6.2 31-16.7 6.9-10.5 8.1-23.6 3.2-35.1zM338 399.6H174l-1.1-1.6 6.9-16.3h62.9c5 0 9-4 9-9s-4-9-9-9h-55.3l7.9-18.7h47.4c5 0 9-4 9-9s-4-9-9-9H203l7.9-18.7h31.8c5 0 9-4 9-9s-4-9-9-9h-24.2l12.9-30.3c.9-2.2 1.4-4.6 1.4-7v-40.2h44.8v36.7c0 2.4.5 4.8 1.4 7l60 141.4c.1.1-1 1.7-1 1.7z"/><circle cx="297.4" cy="114.4" r="27.3"/><circle cx="222.8" cy="95.6" r="19.3"/></svg>