<svg xmlns="http://www.w3.org/2000/svg" fill="#fff" width="512" height="512" viewBox="0 0 512 512"><path d="M234.599 183.953L40 472.065l36.123-345.791c-1.211 18.627 9.659 36.602 28.087 43.309 11.889 4.328 24.311 2.901 34.641-2.594l27.862-76.552c4.055-11.141-1.744-23.577-12.885-27.632-11.142-4.055-23.577 1.744-27.633 12.885l-7.373 20.259-.256-.093c-.101.455-.042.911-.205 1.36-2.036 5.593-8.222 8.478-13.815 6.442-5.594-2.036-8.479-8.222-6.443-13.816.164-.448.502-.759.717-1.173l-.256-.092 7.373-20.259c8.145-22.378 32.888-33.915 55.265-25.771 22.377 8.145 33.915 32.886 25.771 55.265l-27.357 75.161c4.098 11.682 13.062 21.53 25.629 26.105 18.426 6.706 38.307-.076 49.354-15.125zM472 291.423v144c0 19.8-16.2 36-36 36H202c-19.8 0-36-16.2-36-36v-95.062l56.326-84.938H238v-18c0-29.7 24.3-54 54-54h54c29.7 0 54 24.3 54 54v18h36c19.8 0 36 16.2 36 36zm-198-36h90v-18c0-9.9-8.1-18-18-18h-54c-9.9 0-18 8.1-18 18v18zm58.031 165.734c0-3.995-1.36-7.362-4.09-10.082s-6.088-4.09-10.082-4.09c-4.062 0-7.485 1.37-10.272 4.09-2.786 2.72-4.185 6.088-4.185 10.082 0 4.508 1.446 8.008 4.328 10.519 2.882 2.492 6.259 3.747 10.129 3.747 3.738 0 7.039-1.274 9.892-3.805s4.28-6.029 4.28-10.461zm34.526-91.783c0-6.849-1.922-13.184-5.755-19.023-3.833-5.84-9.274-10.444-16.311-13.848-7.039-3.386-15.151-5.079-24.349-5.079-9.892 0-18.547 2.035-25.966 6.086-7.418 4.052-13.058 9.188-16.93 15.351-3.87 6.202-5.802 12.289-5.802 18.319 0 2.911 1.217 5.632 3.662 8.123 2.444 2.51 5.44 3.766 8.989 3.766 6.021 0 10.11-3.576 12.27-10.748 2.282-6.848 5.069-12.041 8.369-15.541 3.3-3.538 8.436-5.288 15.408-5.288 5.963 0 10.824 1.75 14.6 5.231 3.776 3.482 5.659 7.762 5.659 12.841 0 2.606-.619 5.002-1.854 7.228a27.642 27.642 0 0 1-4.566 6.049c-1.807 1.789-4.736 4.47-8.798 8.028-4.632 4.052-8.303 7.571-11.032 10.501-2.73 2.967-4.917 6.391-6.563 10.272-1.646 3.919-2.473 8.522-2.473 13.848 0 4.242 1.123 7.456 3.377 9.606 2.253 2.149 5.022 3.233 8.322 3.233 6.344 0 10.111-3.29 11.318-9.891.694-3.101 1.217-5.27 1.569-6.525a19.969 19.969 0 0 1 1.474-3.69c.637-1.256 1.599-2.607 2.901-4.109 1.303-1.484 3.025-3.216 5.183-5.175 7.799-6.981 13.201-11.947 16.217-14.875 3.015-2.967 5.612-6.468 7.799-10.519s3.282-8.788 3.282-14.171z"/></svg>