<svg xmlns="http://www.w3.org/2000/svg" fill="#fff" width="512" height="512" viewBox="0 0 512 512"><path d="M163.188 249.062v43.5h180v-43.5c0-35.922 19.688-65.953 49.5-72.781-5.733-71.734-30.391-118.844-92.25-118.844h-88.875c-61.859 0-86.516 47.109-92.25 118.844 29.812 6.828 43.875 36.86 43.875 72.781zm255.75-52.546a50.388 50.388 0 0 0-18.062 3.359c-21.094 2.75-39.156 23.719-39.156 49.188v61.562h-216.5v-59.312c0-25.469-13-46.438-34.094-49.188a50.396 50.396 0 0 0-18.062-3.359c-28.625 0-51.844 24.375-51.844 50.953 0 17.859 16.672 33.453 32.25 41.75v58.844c0 27.345 9.656 49.5 32.938 49.5.438 0 .859 1.562 1.281 1.548l10.234 44.952c0 4.562 3.422 8.25 7.672 8.25h7.672c4.234 0 7.672-3.688 7.672-8.25l5.109-44.905 214.797-2.267 8.531 46.047c0 4.548 3.438 8.25 7.672 8.25h7.656c4.266 0 7.688-3.702 7.688-8.25l6.828-46.641c2.078.375-.875-.984 1.297-.984 23.297 0 32.767-22.172 32.767-49.5v-59.328c15.047-8.438 37.5-23.766 37.5-41.266-.003-26.594-23.222-50.953-51.846-50.953z"/></svg>