<svg xmlns="http://www.w3.org/2000/svg" fill="#fff" width="512" height="512" viewBox="0 0 512 512"><path d="M264.953 47.438c-19.844 2.281-88.203 26.359-90.344 197-2.188 179.609 70.5 217.422 90.547 217.109V342.859c-16.484-.094-15.797-18.125-19.672-55.297-2.406-24.656-3.141-46.125 0-76.375 2.359-21.312 2.297-42.047 19.672-42.062l-.203-121.687zm59.25 414.312c7.766-.109 13.25-6.344 13.234-13.438v-90.938c.016-7.422-5.923-13.203-13.234-13.25h-40.219V461.75s9.875-.047 9.875 0h30.344zm0-288.891c7.766.047 13.25-6.219 13.234-13.219V60.687c.016-7.406-5.923-13.203-13.234-13.25h-40.219v125.422s9.875.078 9.875 0h30.344z"/></svg>