<svg xmlns="http://www.w3.org/2000/svg" fill="#fff" width="512" height="512" viewBox="0 0 512 512"><path d="M328.066 112h-18V76h18c19.919.068 35.93 16.079 36 36v123.133l-36 36V112zm0 324h-252V112h18V76h-18a36.038 36.038 0 0 0-36 36v324a36.039 36.039 0 0 0 36 36h252c19.919-.068 35.93-16.081 36-36v-48.134l-36 18V436zm-180-324h108c9.9 0 18-8.1 18-18s-8.1-18-18-18h-22.995c-6.233 10.715-17.714 18-31.005 18-13.293 0-24.772-7.285-31.007-18h-22.993c-9.902 0-18 8.1-18 18s8.098 18 18 18zm54-36c9.94 0 18-8.059 18-18s-8.06-18-18-18c-9.941 0-18 8.059-18 18s8.059 18 18 18zm-72 126.227h144c9.94 0 18-8.062 18-18 0-9.941-8.06-18-18-18h-144c-9.941 0-18 8.059-18 18 0 9.938 8.059 18 18 18zm0 72h144c9.94 0 18-8.06 18-18 0-9.941-8.06-18-18-18h-144c-9.941 0-18 8.059-18 18 0 9.939 8.059 18 18 18zm0 72h144c9.94 0 18-8.06 18-18 0-9.941-8.06-18-18-18h-144c-9.941 0-18 8.059-18 18 0 9.939 8.059 18 18 18zm209.338-35.521l25.454 25.456 76.37-76.367-25.456-25.456-76.368 76.367zm127.28-101.825c-7-6.997-18.455-6.997-25.456 0l-12.728 12.73 25.456 25.456 12.728-12.728c7-7 7-18.456 0-25.458zM326.675 323.435l-12.726 38.182 38.183-12.728-25.457-25.454z"/></svg>