<svg xmlns="http://www.w3.org/2000/svg" fill="#fff" width="512" height="512" viewBox="0 0 512 512"><path d="M364.016 242.203c0 20.875-2.453 62.844-22.891 62.844h-.469c-17.767-.531-12.797-32-12.797-53.25V188h-17.047c-1.984 75.312-1.109 155.875-1.109 236.438 0 27.095 3.141 58.312-12.062 58.312h-7.172c-19.141 0-16.641-20.656-16.641-47.703V294.984h-35.234c-2.312 46.766.016 106.422-.5 157.922-.156 17.719-.953 29.844-16.391 29.844h-6.625c-12.109 0-12.953-12.469-12.953-39.859L201.562 188h-16.531c-2 19.438-1.078 41.672-1.078 62.75 0 22.438 3.109 52.781-13.391 54.297-.594.047-1.719-1.062-2.266-1.062-18.656 0-20.484-30.797-20.484-53.233 0-47.391-2-108.453 26.906-124.719 8.672-4.906 22.344-3.703 36.781-3.703v1.156c11.078 0 23.281-.547 35.766-.547 9.562 0 47.141-.312 55.969-.312 15.905 0 29.547 1.031 38.875 6.734 25.688 15.561 21.907 65.67 21.907 112.842zM252 98.297c-2.172 0-4.312-.172-6.406-.562-18.125-3.328-34.891-30.859-22.344-52.219 4.156-7.062 11.656-14.047 25.562-15.953 1.578-.234 3.203-.328 4.812-.328 19.03 0 39.438 14.922 34.562 41.875-3.077 17.031-20.217 27.187-36.186 27.187z"/></svg>