<svg xmlns="http://www.w3.org/2000/svg" fill="#fff" width="512" height="512" viewBox="0 0 512 512"><path fill-rule="evenodd" clip-rule="evenodd" d="M508.183 213.218c0 20.875-2.462 62.845-22.894 62.845h-.464c-17.777-.54-12.811-32.013-12.811-53.253v-63.794h-17.037c-1.993 75.31-1.109 155.869-1.109 236.416 0 27.124 3.139 58.342-12.071 58.342h-7.164c-19.147 0-16.652-20.671-16.652-47.716V266.006H382.75c-2.309 46.739-.495 96.043-.495 96.043l-35.975-16.771-.562-186.262h-16.522c-1.993 19.424-1.082 41.663-1.082 62.735 0 22.446 3.105 52.785-13.392 54.311-.592.047-1.719-1.051-2.259-1.051-18.662 0-20.497-30.814-20.497-53.26 0-47.381-1.994-108.441 26.921-124.717 8.656-4.892 22.334-3.701 36.767-3.701v1.157c11.09 0 23.285-.542 35.775-.542 9.565 0 47.133-.32 55.96-.32 15.907 0 29.547 1.031 38.891 6.737 25.669 15.566 21.903 65.671 21.903 112.853zM396.151 69.311c-2.162 0-4.304-.175-6.394-.565-18.121-3.319-34.888-30.859-22.349-52.223 4.154-7.058 11.653-14.04 25.569-15.957a34.522 34.522 0 0 1 4.819-.32c19.033 0 39.416 14.926 34.546 41.873-3.073 17.038-20.209 27.192-36.191 27.192zm-139.732 259.87c-10.746 0-19.449-8.692-19.449-19.449 0-10.724 8.703-19.44 19.449-19.44 10.746 0 19.449 8.716 19.449 19.44 0 10.757-8.703 19.449-19.449 19.449zm-12.831-70.132c-.443 0-.882 0-1.325-.027-15.566-.711-20.039-35.208-23.434-46.861-6.046-20.162-13.903-35.577-18.23-54.338l-26.199 1.123c13.498 54.34 27.967 80.078 27.967 149.668h-18.011v35.564l-36.563 20.25v-55.814h-36v128.939c0 9.941-8.059 18-17.998 18-9.943 0-17.438-8.059-17.438-18V308.614H39.486c13.597-54.189 29.434-96.066 43.718-149.668l-26.334-1.123c-8.483 18.022-9.11 35.138-14.814 54.338-2.779 9.367-9.909 45.587-23.405 46.861-.86.076-1.699.126-2.462.126-18.61 0-12.119-22.277-8.233-35.26 5.382-17.651 12.463-42.068 18.146-60.755C34.976 133.899 41 97.917 76.16 95.138c8.186-.664 20.111-1.183 32.699-1.183 21.811 0 80.536-1.823 90.617 3.143 26.653 13.156 34.448 65.815 43.819 96.97 2.237 7.204 5.458 17.651 8.557 27.684 4.351 14.16 11.533 37.297-8.264 37.297zM132.006 70.173c-4.23 0-8.654-.788-13.154-2.533-12.173-4.648-23.285-19.058-21.316-37.226 1.62-14.801 12.314-25.792 26.627-28.766a38.8 38.8 0 0 1 7.868-.812c16.618 0 31.988 10.593 34.74 26.332 3.764 21.735-12.907 43.005-34.765 43.005zm92.823 306.096c6.111-2.534 13.118.364 15.653 6.473 2.534 6.111-.364 13.118-6.473 15.653-16.895 7.006-28.685 23.609-28.694 42.928.014 25.706 20.781 46.467 46.458 46.478 15.397-.007 29.034-7.465 37.528-19.028 3.919-5.33 11.414-6.475 16.744-2.56 5.328 3.917 6.476 11.414 2.56 16.744-12.8 17.415-33.478 28.805-56.831 28.798-38.88.011-70.425-31.523-70.412-70.432-.01-29.348 17.964-54.47 43.467-65.054zm52.922 59.544l-27.311-72.502c-1.512-6.439 1.85-12.884 8.291-14.395 6.437-1.512 11.198 2.484 12.708 8.924l4.383 5.314h40.07c6.615 0 11.977 2.268 11.977 8.883 0 6.613-5.362 9.164-11.977 9.164h-28.643l9.418 36.376c3.06 0 18.842.011 27.099 0 15.401 0 18.259 18.526 16.913 13.9 2.02 6.989 10.366 26.446 9.119 21.989h18.679c6.617 0 11.979 2.628 11.979 9.241 0 6.615-5.362 8.854-11.979 8.854H335.28s-19.516-51.473-15.041-35.748h-42.488z"/></svg>