<svg xmlns="http://www.w3.org/2000/svg" fill="#fff" width="512" height="512" viewBox="0 0 512 512"><path d="M469.641 295.562c-13.405 76.078-82.844 123.172-148.922 111.516-66.094-11.641-114.469-77.422-100.688-155.516 0 0 14.188-130.125 34.328-143.719 27.188-18.312 39.219 20.391 113.234 33.453 70.142 12.359 106.062-22.391 118.922 7.484 10.688 24.782-16.874 146.782-16.874 146.782zM307.125 184.75c-20.922-6-39.156 1.016-42.75 15.297-3.609 14.281 10.906 21.969 31.828 27.953 20.922 6 29.688 6.172 33.297-8.109 3.609-14.281-1.453-29.157-22.375-35.141zm29.156 129.609c-43.875-7.734-65.484-42.562-67.078-33.453-3.328 18.844 14.969 67.531 58.844 75.266 43.875 7.735 77.719-31.734 81.047-50.609 1.047-6.001-28.938 16.531-72.813 8.796zm71.016-110.062c-21.672-1.703-31.328 9.406-32.609 22.844-1.28 13.453 7.048 16.172 28.72 17.875 21.672 1.734 37.875-.109 39.155-13.562 1.281-13.453-13.594-25.454-35.266-27.157zm-229.219.922c.688 7.062 3.812 13.312 9.609 17.562-2.344 16.859-3.656 28.781-3.656 28.781a151.37 151.37 0 0 0-2.328 28.094c-4.625-.219-9.359-.141-14.266.75-43.859 7.719-62.156 56.422-58.828 75.266 1.594 9.125 23.203-25.719 67.078-33.453 4.391-.797 8.562-1.078 12.656-1.281 9.031 28.031 26.719 51.438 49.656 67.031-13.922 9.531-29.672 16.234-46.547 19.203-66.078 11.656-134.031-33.594-147.812-111.703 0 0-31.172-127.141-16.875-146.797 19.25-26.5 43.828 5.766 117.828-7.297 30.516-5.375 51.891-16.922 68.141-26.297-8.031 14.312-14.828 45.031-19.797 73.906-11.375 2.11-15.812 6.172-14.859 16.235zm-45.172 7.265c-3.609-14.297-12.375-14.109-33.312-8.125-20.922 6-35.438 13.688-31.844 27.953 3.625 14.297 21.844 21.312 42.781 15.312 20.907-6.015 25.969-20.858 22.375-35.14z"/></svg>