<svg xmlns="http://www.w3.org/2000/svg" fill="#fff" width="512" height="512" viewBox="0 0 512 512"><path d="M360.812 355.297H150.703c-21.25 0-38.469-17.219-38.469-38.484V69.469c0-21.25 17.219-38.469 38.469-38.469h210.109c21.25 0 38.483 17.219 38.483 38.469v247.344c.002 21.265-17.233 38.484-38.483 38.484zm-31.703-21.953c19.125 0 34.608-15.5 34.608-34.625s-15.483-34.625-34.608-34.625-34.625 15.5-34.625 34.625 15.5 34.625 34.625 34.625zm-146.218 0c19.125 0 34.625-15.5 34.625-34.625s-15.5-34.625-34.625-34.625-34.625 15.5-34.625 34.625 15.5 34.625 34.625 34.625zM364.016 85.875c0-10.609-8.608-19.219-19.25-19.219H166.953c-10.641 0-19.25 8.609-19.25 19.219v106.016c0 10.625 8.609 19.234 19.25 19.234h177.812c10.642 0 19.25-8.609 19.25-19.234l.001-106.016zM201.781 373.25l-60.984 107.609-46.063.141 61-107.859 46.047.109zM417.266 481l-46.078-.141-60.969-107.609 46.047-.109 61 107.859z"/></svg>