<svg xmlns="http://www.w3.org/2000/svg" fill="#fff" width="512" height="512" viewBox="0 0 512 512"><path d="M344.625 303.672s-45.547-76.109-55.203-92.844c-8.359-14.453-.406-32.547 37.797-32.547h109.203v125.391h-91.797zm73.781-198.719h18v18h-18v-18zm0-36h18v18h-18v-18zm-36 72.563h18v18h-18v-18zm-18 18h-18v-18h18v18zm0-72h18v18h-18v-18zm-78.468 61.64c-24.703 0-44.719-20.016-44.719-44.719 0-24.688 20.016-44.719 44.719-44.719 24.688 0 44.72 20.031 44.72 44.719-.002 24.704-20.033 44.719-44.72 44.719zM238.5 220.844l31.797 31.781c8.609 8.625 8.609 22.625 0 31.234-8.641 8.641-22.625 8.641-31.234 0l-32.281-32.267c-1.75-1.75-3.047-3.75-4.078-5.844-5.062-4.047-8.359-10.188-8.359-17.188v-8.516l-57.719 37.062c-2.188 1.531-4.516 2.672-6.891 3.625v169.452c0 12.188-16.078 22.095-28.266 22.095-12.203 0-24.906-9.906-24.906-22.095v-192.23c-3.203-12.922 1.516-27.016 13.062-35.125L187.422 144c6.297-4.406 13.578-6.172 20.703-5.812a22.158 22.158 0 0 1 8.281-1.625c12.203 0 22.094 9.875 22.094 22.078v4.516c1.297 5.219 1.234 10.594 0 15.734v41.953z"/></svg>