<svg xmlns="http://www.w3.org/2000/svg" fill="#fff" width="512" height="512" viewBox="0 0 512 512"><path fill-rule="evenodd" clip-rule="evenodd" d="M243.248 439.372c0 18.288-14.827 33.115-33.118 33.115-18.288 0-33.115-14.827-33.115-33.115 0-18.292 14.827-33.118 33.115-33.118 18.292 0 33.118 14.827 33.118 33.118zM93.972 363.513H75.974v-216h162v18c0 9.9 8.1 18 18 18s18-8.1 18-18v-72c0-9.9-8.1-18-18-18s-18 8.1-18 18v18h-180c-4.741 0-9.376 1.168-12.728 4.522-3.352 3.352-5.272 7.238-5.272 11.979v257.999c0 4.739 1.921 7.126 5.272 10.478s7.987 3.022 12.728 3.022h35.998c9.943 0 18.002-8.06 18.002-18 0-9.941-8.058-18-18.002-18zm378.002 20.743c0 24.284 2.198 51.257-22.088 51.257h-4.401c-2.722-36-25.999-49.86-54.655-49.86-28.656 0-51.935 13.86-54.659 49.86h-71.383c-2.72-36-26.003-53.41-54.659-53.41-25.432 0-46.629 15.521-53.026 38.927-11.812-9.14-16.796-24.336-16.796-35.887 0-28.287 25.664-49.12 25.664-49.12v-40.077c0-24.287 12.697-40.433 36.983-40.433h92.39c24.284 0 54.378 10.922 66.872 31.747l17.023 40.253h70.646c24.286 0 22.088 10.381 22.088 34.664v22.079zm-216-110.743h-59.641c-9.902 0-15.228 8.15-15.228 15.39 0 8.158-.227 27.716-.227 38.61h75.096v-54zm105.603 54c-7.727-36-32.195-54-66.231-54h-21.371v54h87.602zm29.253 78.741c-18.29 0-33.118 14.827-33.118 33.118 0 18.288 14.828 33.115 33.118 33.115 18.288 0 33.116-14.827 33.116-33.115.001-18.291-14.828-33.118-33.116-33.118zm-80.856-222.741h53.998v18c0 9.9 8.102 18 18.002 18s17.998-8.1 17.998-18v-18h72.002v-36h-72.002v-36h72.002v-36h-72.002v-18c0-9.9-8.098-18-17.998-18s-18.002 8.1-18.002 18v18h-53.998c-9.9 0-18 8.1-18 18v72c0 9.9 8.1 18 18 18z"/></svg>