<svg xmlns="http://www.w3.org/2000/svg" fill="#fff" width="512" height="512" viewBox="0 0 512 512"><path d="M472 418v36c0 9.9-8.1 18-18 18H58c-9.9 0-18-8.1-18-18v-36h432zm-18-18H58v-54l36-108v-54c0-9.9 8.1-18 18-18h198v-36h-72a18.124 18.124 0 0 1-12.728-5.272A18.124 18.124 0 0 1 220 112V58a18.12 18.12 0 0 1 5.272-12.728A18.124 18.124 0 0 1 238 40h180c4.739 0 9.376 1.921 12.728 5.272A18.12 18.12 0 0 1 436 58v54c0 4.739-1.921 9.376-5.272 12.728A18.124 18.124 0 0 1 418 130h-72v36h54c9.9 0 18 8.1 18 18v54l36 108v54zM400 94V75.998H256V94h144zM274 238h108v-36H274v36zm99 36h-18c-4.975 0-9 4.025-9 9s4.025 9 9 9h18c4.975 0 9-4.025 9-9s-4.025-9-9-9zm36 36h-18c-4.975 0-9 4.025-9 9s4.025 9 9 9h18c4.975 0 9-4.025 9-9s-4.025-9-9-9zm-72 0h-18c-4.975 0-9 4.025-9 9s4.025 9 9 9h18c4.975 0 9-4.025 9-9s-4.025-9-9-9zm-72 0h-18c-4.975 0-9 4.025-9 9s4.025 9 9 9h18c4.975 0 9-4.025 9-9s-4.025-9-9-9zm-72 0h-18c-4.975 0-9 4.025-9 9s4.025 9 9 9h18c4.975 0 9-4.025 9-9s-4.025-9-9-9zm-72 0h-18c-4.975 0-9 4.025-9 9s4.025 9 9 9h18c4.975 0 9-4.025 9-9s-4.025-9-9-9zm180-36h-18c-4.975 0-9 4.025-9 9s4.025 9 9 9h18c4.975 0 9-4.025 9-9s-4.025-9-9-9zm-72 0h-18c-4.975 0-9 4.025-9 9s4.025 9 9 9h18c4.975 0 9-4.025 9-9s-4.025-9-9-9zm-72 0h-18c-4.975 0-9 4.025-9 9s4.025 9 9 9h18c4.975 0 9-4.025 9-9s-4.025-9-9-9z"/></svg>