<svg xmlns="http://www.w3.org/2000/svg" fill="#fff" width="512" height="512" viewBox="0 0 512 512"><path d="M471.673 472H260.192c-6.905 0-96.822-54-96.822-54v54H39.933v-54H57.05s-.806-105.158 1.8-110.826c3.731-8.112 19.896 30.714 80.29 30.714 60.543 0 67.293-30.367 79.149-30.367 8.395 0 58.964 63.404 118.459 78.278 59.495 14.874 85.624 14.794 113.944 29.82C476.719 429.43 471.673 472 471.673 472zm.26-342c-49.705 0-90-40.295-90-90 0 49.705-40.295 90-90 90 49.705 0 90 40.295 90 90 0-49.705 40.294-90 90-90zm-212.625 79.312c-29.823 0-54-24.177-54-54 0 29.823-24.177 54-54 54 29.823 0 54 24.177 54 54 0-29.823 24.176-54 54-54z"/></svg>