<svg xmlns="http://www.w3.org/2000/svg" fill="#fff" width="512" height="512" viewBox="0 0 512 512"><path d="M388.328 373.125H123.672c-21.25 0-38.484-17.234-38.484-38.484v-85.358c0-13.906 7.438-25.969 18.5-32.734-.469-1.891-.734-4.047-.734-6.547V138.72c0-19.875 16.109-36 36-36h36v-18c0-9.938 8.062-18 18-18h126c9.938 0 18 8.062 18 18v18h36c19.875 0 36 16.125 36 36V210c0 2.469-.25 4.625-.734 6.5 11.095 6.75 18.595 18.844 18.595 32.781v85.359c-.003 21.251-17.237 38.485-38.487 38.485zm-280.594-78.531c0 19.125 15.5 34.641 34.625 34.641 19.109 0 34.609-15.516 34.609-34.641s-15.5-34.625-34.609-34.625c-19.125 0-34.625 15.5-34.625 34.625zm265.25-137.344c0-9.938-8.078-18-18-18H156.312c-9.953 0-18 8.062-18 18v36.031c0 8.578 6 15.719 14.031 17.531h206.595c8.03-1.812 14.047-8.953 14.047-17.531V157.25zm-3.422 102.719c-19.125 0-34.642 15.5-34.642 34.625s15.517 34.641 34.642 34.641 34.625-15.516 34.625-34.641-15.499-34.625-34.625-34.625zM156.953 427.281c0 9.953-8.062 18-18 18h-18c-9.938 0-18-8.047-18-18v-36h54v36zm252 0c0 9.953-8.062 18-18 18h-18c-9.938 0-18-8.047-18-18v-36h54v36z"/></svg>