<svg xmlns="http://www.w3.org/2000/svg" fill="#fff" width="512" height="512" viewBox="0 0 512 512"><path d="M388.75 275.25c-28.188 15.406-42.844 41.078-103.766 9.438-.734-.391 70.438-152.28 70.578-151.358 17.547 104.156 61.875 53.797 88.25 70.703 42.812 27.406 46.125 95.375 46.125 95.375s-47.859-53.299-101.187-24.158zM215.234 385.953c-4.203 9-14.906 12.906-23.922 8.703s-12.906-14.906-8.703-23.922l114.109-244.703c4.188-9 14.906-12.891 23.922-8.703 9.017 4.203 12.892 14.906 8.703 23.938L215.234 385.953zm-66.796-231.391c-3.359-7.203-.25-15.781 6.969-19.141 7.203-3.359 15.766-.25 19.141 6.969l44.406 91.266-11.375 47.641-59.141-126.735zm-44.344 161.407c-47.547.125-82.016-36.688-82.016-36.688s59.062 12.562 73.438-38.984c5.203-18.672-15.75-39.438 32.844-84.297.547-.5 56.938 120.625 56.469 121.094-31.532 31.594-56.313 38.812-80.735 38.875zm194.953 57.969c3.359 7.203.234 15.767-6.984 19.142-7.203 3.358-15.766.219-19.125-6.984l-15.766-27.28 14.234-36.547 27.641 51.669z"/></svg>