<svg xmlns="http://www.w3.org/2000/svg" fill="#fff" width="512" height="512" viewBox="0 0 512 512"><path d="M471.703 373.953s-.391 25.984-23.797 25.984H64.078c-24.5 0-23.812-25.984-23.812-25.984l-.25-27.703 36.484.031V138.484c0-25.984 24.688-26.266 24.688-26.266l311.375-.156c22.734 0 23.953 25.344 23.953 25.344v208.906h35.47l-.283 27.641zm-287.687 7.735h144v-18h-144v18zm216.093-234.204H112.516v198.484H400.11l-.001-198.484zm17.907 216.766h-18v17.438h18V364.25zm-75.704-153.938c5.266 5.266 5.266 13.812 0 19.078a13.488 13.488 0 0 1-19.095 0c-36.891-36.906-96.734-36.906-133.641 0-5.281 5.281-13.828 5.281-19.094 0-5.281-5.266-5.281-13.812 0-19.078 47.456-47.453 124.377-47.453 171.83 0zm-35 34.985c5.266 5.281 5.266 13.828 0 19.109-5.281 5.266-13.812 5.266-19.095 0-17.577-17.578-46.062-17.578-63.625 0-5.281 5.266-13.844 5.266-19.094 0-5.281-5.281-5.281-13.828 0-19.109 28.111-28.094 73.705-28.094 101.814 0zm-38.187 31.828c7.031 7.031 7.031 18.422 0 25.453s-18.438 7.031-25.453 0c-7.031-7.031-7.031-18.422 0-25.453 7.016-7.031 18.422-7.031 25.453 0z"/></svg>