<svg xmlns="http://www.w3.org/2000/svg" fill="#fff" width="512" height="512" viewBox="0 0 512 512"><path d="M400 391.344v-18h-18v-18c0-9.938-8.047-18-18-18s-18 8.062-18 18v18h-18v18h-36v-18h-18v-18c0-9.938-8.062-18-18-18s-18 8.062-18 18v18h-18v18h-36v-18h-18v-18c0-9.938-8.062-18-18-18s-18 8.062-18 18v18h-18v18H76v-54c0-19.891 16.125-36 36-36h287.438c19.875 0 36 16.109 36 36v54H400zm-54-126h-18v-18c0-9.953-8.047-18-18-18s-18 8.047-18 18v18h-18v18h-36v-18h-18v-18c0-9.953-8.062-18-18-18s-18 8.047-18 18v18h-18v18h-36v-54c0-19.875 16.125-36 36-36h179.438c19.875 0 36 16.125 36 36v54H346v-18zm-288 144h396c9.953 0 18 8.062 18 18 0 9.953-8.047 18-18 18H58c-9.938 0-18-8.047-18-18 0-9.938 8.062-18 18-18zm264.219-294.578l-66.234 66.484-67.031-68.359c-2.719-4.594-4.703-9.656-4.703-15.391 0-17.047 13.812-30.844 30.859-30.844 16.203 0 32.484 12.609 33.75 28.5 3.359.938 3.422 8.484 6.922 8.531 3.734.062 4.078-7.391 7.719-8.219 1.108-16.031 17.517-28.812 33.828-28.812 17.031 0 30.844 13.797 30.844 30.844-.001 6.547-2.485 12.281-5.954 17.266z"/></svg>