<svg xmlns="http://www.w3.org/2000/svg" fill="#fff" width="512" height="512" viewBox="0 0 512 512"><path d="M410.938 195.625c-25.266 0-45.75-20.484-45.75-45.75 0-1.562.328-3.031.47-4.547L353 139l.562-33.75 12.375 10.125 12.155 2.766c8.297-8.625 19.938-14.016 32.845-14.016 25.28 0 45.766 20.484 45.766 45.75s-20.484 45.75-45.765 45.75zm-21.376 40.125v-5.062c0-9.938 8.062-18 18-18h18c9.938 0 18 8.062 18 18v31.25l8.812 77.312-89.328-.453 6.406-67.047H350.56c-4.952 0-9.452-2-12.688-5.25-8.25 2.156-17.125-1.781-20.844-9.781L293.188 212c-4.188-9.016-.312-19.719 8.703-23.922 9.016-4.203 19.734-.312 23.922 8.703l21 39.375a18.38 18.38 0 0 1 3.75-.406h38.999zm-135-81c-29.812 0-54-24.172-54-54s24.188-54 54-54c29.829 0 54 24.172 54 54s-24.171 54-54 54zm-40.39 46.531c4.203-9.016 14.922-12.906 23.922-8.703 9.016 4.203 12.906 14.906 8.703 23.922l-23.828 44.719c-3.469 7.438-11.375 11.312-19.094 10.094-3.219 3.031-7.531 4.938-12.312 4.938h-36v21.406l45 113.03-56.469.048c1.531 2.655 2.469 5.688 2.469 8.952v14.062h9c9.938 0 18 4.672 18 14.625s-8.062 16.875-18 16.875h-27c-9.938 0-18-3.547-18-13.5v-32.062c0-3.266.938-6.28 2.453-8.905l-57.719.047 46.266-116.422V251.5c0-9.938 8.062-20.25 18-20.25h18c6.656 0 12.391 3.641 15.516 9h38.484c.609 0 1.172.125 1.75.172l20.859-39.141zm-83.36 11.781c-9.875 0-18.984-3.219-26.469-8.547l-13.656 26.172H74.562v-70.125l1.984 1.984c2.422-23 30.641-40.984 54.266-40.984 25.281 0 45.766 20.484 45.766 45.75s-20.484 45.75-45.766 45.75zm255.75 220.688h12v-13.5c0-3.312.938-6.344 2.5-9h-37.375l16.875-73 63 1 9 72h-20.5c1.547 2.656 2.5 5.688 2.5 9l-1.125 31.5c0 9.953-6.938 13.5-16.875 13.5h-30c-9.938 0-18-6.922-18-16.875s8.063-14.625 18-14.625z"/></svg>