<svg xmlns="http://www.w3.org/2000/svg" fill="#fff" width="512" height="512" viewBox="0 0 512 512"><path fill-rule="evenodd" clip-rule="evenodd" d="M450.437 462.265h-33.194s-19.516-51.471-15.043-35.748h-42.487l-27.311-72.502c-1.514-6.439 1.85-12.884 8.289-14.395 6.439-1.51 11.198 2.484 12.71 8.924l4.383 5.314h40.07c6.615 0 11.977 2.268 11.977 8.883 0 6.613-5.362 9.164-11.977 9.164h-28.645l9.419 36.376c3.06 0 18.842.011 27.097 0 15.401 0 18.259 18.526 16.913 13.901 2.021 6.988 10.368 26.446 9.121 21.987h18.679c6.617 0 11.977 2.628 11.977 9.241-.001 6.616-5.361 8.855-11.978 8.855zm-112.056-142.38c-10.748 0-19.449-8.692-19.449-19.449 0-10.724 8.701-19.44 19.449-19.44 10.746 0 19.447 8.716 19.447 19.44 0 10.757-8.701 19.449-19.447 19.449zm-15.939 53.56c2.536 6.111-.362 13.118-6.473 15.653-16.895 7.006-28.683 23.611-28.692 42.93.014 25.704 20.779 46.465 46.456 46.476 15.397-.007 29.036-7.463 37.53-19.028 3.919-5.33 11.412-6.475 16.744-2.56 5.328 3.917 6.475 11.414 2.56 16.744-12.802 17.415-33.48 28.805-56.833 28.798-38.878.011-70.425-31.523-70.411-70.43-.009-29.349 17.964-54.472 43.468-65.056 6.109-2.534 13.118.364 15.651 6.473zm-32.891-105.692c-.441 0-.882 0-1.325-.027-15.566-.711-20.039-35.208-23.434-46.861-6.046-20.162-13.903-35.577-18.23-54.338l-26.197 1.123c13.496 54.34 32.517 95.308 45.965 149.668h-36.011v128.939c0 9.941-9.745 18-19.688 18-9.941 0-16.873-8.059-16.873-18V317.318h-36v128.939c0 9.941-8.06 18-18 18-9.941 0-17.438-8.059-17.438-18V317.318H85.449c13.599-54.189 29.435-96.066 43.72-149.668l-26.336-1.123c-8.482 18.022-9.11 35.138-14.814 54.338-2.777 9.367-9.909 45.587-23.405 46.861a28.54 28.54 0 0 1-2.461.126c-18.612 0-12.121-22.277-8.235-35.26 5.382-17.651 12.463-42.068 18.146-60.755 8.874-29.234 14.899-65.216 50.06-67.995 8.185-.664 20.11-1.183 32.699-1.183 21.809 0 80.536-1.823 90.616 3.143 26.653 13.156 34.45 65.815 43.819 96.97 2.239 7.204 5.458 17.651 8.559 27.684 4.348 14.16 11.53 37.297-8.266 37.297zM177.969 78.877c-4.23 0-8.654-.788-13.154-2.533-12.173-4.648-23.285-19.058-21.316-37.226 1.62-14.801 12.316-25.792 26.627-28.766a38.808 38.808 0 0 1 7.868-.812c16.618 0 31.988 10.593 34.74 26.332 3.764 21.735-12.908 43.005-34.765 43.005z"/></svg>