<svg xmlns="http://www.w3.org/2000/svg" fill="#fff" width="512" height="512" viewBox="0 0 512 512"><path d="M435.953 363.656H220.672l-.156-35.484H418.5V147.641H220.516v-35.453h215.438c9.922 0 18 8.047 18 18v215.469c-.001 9.937-8.079 17.999-18.001 17.999zM315.375 93.625h-10.484c-9.953 0-18-8.078-18-18 0-9.953 8.047-18 18-18h10.484c9.953 0 18.016 8.047 18.016 18 0 9.922-8.063 18-18.016 18zM156.281 220.219l35.062-54.297s30.172.125 66.609.25c41.766 0 52.5-1.953 52.5 13.172 0 .141-.078 10.828-.062 10.969 0 13.75-13.452 11.453-51.483 11.453-30.797 0-56.547.031-56.547.031 0 75.328-.547 115.375-.547 195.922 0 27.142 5.453 56.672-15.375 56.672h.328c-23.766-.141-20.172-18.983-20.172-46.062v-80.392h-17.875c-2.328 46.72.016 45.062-.5 96.595-.172 17.688-2.062 29.858-17.5 29.858-.328 0-.625-.047-.938 0-19.344 0-17.391-28.266-17.391-55.655V201.797H95.14c-2 19.422-1.078 32.656-1.078 53.734 0 22.438 4.797 52.781-11.703 54.328-.609.031-10.172.078-10.688.078-18.672 0-12.516-31.97-12.516-54.406 0-47.375-8.297-73.312 20.609-89.594l42.891.25 33.626 54.032zm141.625 165.219c2.531-2.53 9.016-6 12.188-4.875 3.172-1.125 10.203 2.345 12.75 4.875l39.281 37.031a8.987 8.987 0 0 1 0 12.719c-3.516 3.517-9.219 3.517-12.734 0l-39.297-36.483-38.719 36.483c-3.516 3.517-9.234 3.517-12.75 0a9.016 9.016 0 0 1 0-12.719l39.281-37.031zM147.969 75.641c19.938 0 36.094 16.156 36.094 36.094 0 19.922-16.156 36.078-36.094 36.078-19.906 0-36.062-16.156-36.062-36.078-.001-19.938 16.155-36.094 36.062-36.094z"/></svg>