<svg xmlns="http://www.w3.org/2000/svg" fill="#fff" width="512" height="512" viewBox="0 0 512 512"><path d="M292 336.875c-7.875 7.875-11.422 18-18 18v99h9s54 10.797 54 27c0 1.125-162 .625-162 0 0-16.203 54-27 54-27h9v-99c-6.578 0-11.25-11.25-18-18l-144-153c0-9.938 8.047-9.562 18-9.562h324c9.953 0 18-.375 18 9.562l-144 153zM113.234 192.656s133.766 140 142.766 140 142.766-140 142.766-140H113.234zm199.797 54.282S265.562 302 256.562 302s-57.875-55.062-57.875-55.062h114.344zm-60.687-18.344l-.562-18.281h22.5l-.562 18.281h-21.376zM365.266 66.266l17.953-35.812h18L383.672 65.75l-18.406.516zm9.89 27.609c0 16.109-13.062 29.156-29.156 29.156-2.422 0-4.734-.375-6.984-.922l-29.858 34.203h-18l34.358-41.703c-5.358-5.297-8.672-12.625-8.672-20.734 0-16.094 13.062-29.156 29.156-29.156s29.156 13.062 29.156 29.156z"/></svg>