<svg xmlns="http://www.w3.org/2000/svg" fill="#fff" width="512" height="512" viewBox="0 0 512 512"><path d="M95.562 381.438c-13.594 0-14.219-10.312-6.094-18.453 9.062-9.062 127.953-82.625 128.891-83.233 34.984-22.892 41.438-22.531 82.516.656 1.359.75 112.812 73.733 121.656 82.577 6.531 6.531 8.516 18.406-4.25 18.406M253.312 106.75c-31.953 0-55.594 25.906-55.594 57.875 0 27.625 18.938 50.641 44.828 56.375l.016 17.953C190.578 265.609 57.188 340.328 57.188 368.734c0 34.108 23.828 36.516 55.75 36.516 5.188 0 10.578-.062 16.125-.062h253.906c5.547 0 10.953.062 16.142.062 31.891 0 55.702-2.375 55.702-36.516 0-29.375-126.062-100.267-185.358-129.547 0 0-.345 6.906-.345-5.562 0-26.625-1.233-35.188-19.891-35.188h-1.25c-15.5-3.469-27.109-17.25-27.109-33.812 0-19.188 13.297-34.734 32.453-34.734s34.25 5.188 34.25 24.391c0 0 4.125 7.188 6.656 7.188h9.891c2.859 0 5.703-7.188 5.703-7.188-.001-31.985-24.563-47.532-56.501-47.532"/></svg>