<svg xmlns="http://www.w3.org/2000/svg" fill="#fff" width="512" height="512" viewBox="0 0 512 512"><path fill-rule="evenodd" clip-rule="evenodd" d="M441.28 453.561h-33.194s-19.516-51.471-15.043-35.748h-42.487l-27.311-72.502c-1.512-6.439 1.85-12.884 8.289-14.395 6.439-1.51 11.198 2.484 12.71 8.924l4.383 5.314h40.07c6.615 0 11.977 2.268 11.977 8.883 0 6.613-5.362 9.164-11.977 9.164h-28.645l9.419 36.376c3.06 0 18.842.011 27.097 0 15.401 0 18.259 18.526 16.913 13.901 2.021 6.988 10.368 26.446 9.121 21.987h18.679c6.617 0 11.977 2.628 11.977 9.241-.001 6.616-5.362 8.855-11.978 8.855zm-112.056-142.38c-10.748 0-19.449-8.692-19.449-19.449 0-10.724 8.701-19.44 19.449-19.44 10.746 0 19.447 8.716 19.447 19.44 0 10.757-8.701 19.449-19.447 19.449zm-15.939 53.561c2.536 6.111-.362 13.118-6.471 15.653-16.897 7.006-28.685 23.611-28.694 42.93.014 25.704 20.779 46.465 46.458 46.476 15.395-.007 29.034-7.463 37.528-19.028 3.919-5.33 11.412-6.475 16.744-2.56 5.328 3.917 6.475 11.414 2.56 16.744-12.802 17.415-33.48 28.805-56.831 28.798-38.88.011-70.427-31.523-70.412-70.43-.009-29.349 17.964-54.472 43.468-65.056 6.108-2.535 13.118.363 15.65 6.473zm-61.189-70.679h-.464c-17.779-.54-12.812-32.011-12.812-53.253v-63.794h-17.035c-1.994 75.31-1.109 155.869-1.109 236.417 0 27.122 3.137 58.34-12.071 58.34h-7.164c-19.147 0-16.652-20.671-16.652-47.716V284.006h-35.231c-2.311 46.739.022 106.405-.495 157.918-.171 17.705-.952 29.849-16.393 29.849-.32 0-6.304-.009-6.62 0-12.116 0-12.962-12.505-12.962-39.87l-.562-254.887H96.004c-1.993 19.426-1.082 41.663-1.082 62.735 0 22.446 3.103 52.785-13.392 54.311-.592.049-1.719-1.051-2.259-1.051-18.662 0-20.498-30.814-20.498-53.26 0-47.381-1.993-108.439 26.923-124.717 8.656-4.892 22.334-3.701 36.765-3.701v1.157c11.092 0 23.287-.542 35.777-.542 9.565 0 47.133-.32 55.96-.32 15.907 0 29.547 1.031 38.891 6.737 25.668 15.565 21.901 65.669 21.901 112.851-.002 20.876-2.462 62.847-22.894 62.847zM162.958 87.311c-2.162 0-4.304-.173-6.394-.565-18.121-3.319-34.888-30.857-22.351-52.223 4.156-7.058 11.655-14.04 25.571-15.957a34.502 34.502 0 0 1 4.819-.32c19.033 0 39.416 14.926 34.546 41.873-3.073 17.038-20.209 27.192-36.191 27.192z"/></svg>