<svg xmlns="http://www.w3.org/2000/svg" fill="#fff" viewBox="0 0 512 512"><path d="M432.3 347.2V164.8A64.7 64.7 0 1 0 343 79.4H169.1a64.7 64.7 0 1 0-93.3 83v187.1a64.7 64.7 0 1 0 91.5 86.3h177.4a64.7 64.7 0 1 0 87.6-88.6zm-59.1 56.6a26.8 26.8 0 0 1 .5-4.9 27.8 27.8 0 0 1 21.7-22.2 28.6 28.6 0 0 1 5.6-.6 27.8 27.8 0 0 1 27.7 26.2v1.5a27.8 27.8 0 0 1-27.7 27.7h-.7a27.7 27.7 0 0 1-27.2-27.7zm-234.3 0a27.8 27.8 0 0 1-27.7 27.7l-3.8-.3a27.7 27.7 0 0 1 3.8-55.2h1.7a27.7 27.7 0 0 1 25.6 22.7 26.7 26.7 0 0 1 .4 5.1zm234.2-295.6a27.7 27.7 0 1 1 55.5 0 28.2 28.2 0 0 1-.3 4.1 27.8 27.8 0 0 1-27.4 23.7 28.6 28.6 0 0 1-5.6-.6 27.8 27.8 0 0 1-20.9-19 27.5 27.5 0 0 1-1.3-8.2zM136.2 344.1l209.9-201.4a65.1 65.1 0 0 0 26.5 23.8L164.1 366.6a65.1 65.1 0 0 0-27.9-22.5zm-23.4-28.8v-49.2l156-149.7h51.3zm0-100.5v-41.9a64.8 64.8 0 0 0 62.5-56.5h40zm-1.7-134.3a27.7 27.7 0 0 1 1.7 55.4h-1.7a27.8 27.8 0 0 1-27.7-27.7 26.5 26.5 0 0 1 .2-3.3 27.8 27.8 0 0 1 27.5-24.4zM395.3 196v49.2l-160 153.6h-51.4zm0 100.5v42.7a64.8 64.8 0 0 0-58.9 59.6h-47.7z"/></svg>