<svg xmlns="http://www.w3.org/2000/svg" fill="#fff" width="512" height="512" viewBox="0 0 512 512"><path d="M454.234 427.328h-18.078c-.156 9.797-8.078 17.703-17.922 17.703h-144c-9.828 0-17.767-7.906-17.938-17.703h-18.062c-9.938 0-18-8.047-18-18V250.766l36 32.859v-.297h90V121.031h-90v46.5l-36-37.469v-27.031c0-9.938 8.062-18 18-18h216c9.938 0 18 8.062 18 18v306.297c0 9.953-8.062 18-18 18zm-18-288.297h-54v18h54v-18zm0 54h-54v18h54v-18zm0 54h-54v18h54v-18zm0 72.297h-180v54h180v-54zm-176.187-68.797c-5.891.625-26.062-17.844-60.812-57.203-.938-1.062-15.172-.547-15.172-.547 0 75.328-.531 115.391-.531 195.938 0 27.047 5.406 56.469-15.25 56.609-23.5-.234-19.969-19.047-19.969-46v-62.422h-17.875c-2.312 46.75.016 27.094-.5 78.608-.172 17.703-2.062 29.859-17.5 29.859-.328 0-.625-.031-.938 0-19.344 0-17.375-28.266-17.375-55.642v-196.95H76.859c-2 19.438-1.078 32.672-1.078 53.75 0 22.438 4.781 34.781-11.703 36.312-.594.048-10.156.062-10.703.062-18.656 0-12.5-13.938-12.5-36.375 0-47.375-8.297-73.328 20.609-89.594l42.891.234 68.688-.266s37.828-.406 38.359.141c49.609 50.875 65.344 65.656 65.156 79.422-.078 6.814-9.594 13.345-16.531 14.064zm-91.906 194.844c.062 0 .078-.047.141-.047.078 0 .125.047.203.047h-.344zm-38.438-306.563c-19.938 0-36.094-16.156-36.094-36.094 0-19.938 16.156-36.094 36.094-36.094s36.078 16.156 36.078 36.094c0 19.938-16.14 36.094-36.078 36.094z"/></svg>