<svg xmlns="http://www.w3.org/2000/svg" fill="#fff" width="512" height="512" viewBox="0 0 512 512"><path d="M427 454.656H85c-9.953 0-18-8.062-18-18v-18c0-9.953 8.047-18 18-18h342c9.953 0 18 8.047 18 18v18c0 9.938-8.047 18-18 18zM193 238.641v90.016h-54v-90.016h54zm90 0v90.016h-54v-90.016h54zm90 0v90.016h-54v-90.016h54zm36 126.015c0 9.938-8.047 18-18 18H121c-9.953 0-18-8.062-18-18 0-9.953 8.047-18 18-18h270c9.953 0 18 8.047 18 18zM106.984 219.875c-7.031-7.031-7.031-18.422 0-25.453L241.031 62.625c7.031-7.031 18.406-7.031 25.438 0l138.547 131.797c7.031 7.031 7.031 18.422 0 25.453H106.984z"/></svg>