<svg xmlns="http://www.w3.org/2000/svg" fill="#fff" width="512" height="512" viewBox="0 0 512 512"><path d="M236.219 73.219v18.062c-57.234 4.578-91.656 38.453-91.656 87.438 0 51.75 25.5 76.938 92.359 94.328v90.203c-25.188-4.594-44-15.109-65.516-30.688-4.109-3.188-9.609-5.017-15.125-5.017-14.172 0-25.172 10.97-25.172 25.172 0 9.609 4.578 16.938 12.359 21.97 27.938 19.688 59.531 32.062 93.875 35.719v28.375c0 11 6.344 19.688 17.328 19.688 10.984 0 18-8.688 18-19.688v-27.469c58.142-5.47 108.203-38.906 108.203-89.267 0-49-38.188-76.922-107.781-94.328v-87.906c15.562 3.656 33.392 10.531 49.422 20.141 4.578 2.75 9.142 4.125 13.703 4.125 14.22 0 25.672-10.984 25.672-25.188 0-10.984-6.438-17.859-13.75-21.969-21.047-13.281-48.438-21.984-75.469-25.188V73.219c0-10.984-7.578-19.688-18.562-19.688s-17.89 8.703-17.89 19.688zm90.625 252.015c0 22-24.438 36.641-53.75 39.844v-83.344c35.25 11 53.75 23.36 53.75 43.5zM198.578 175.531c0-20.156 9.031-35.719 38.344-38.469v81.031c-35.266-11.437-38.344-23.343-38.344-42.562z"/></svg>