<svg xmlns="http://www.w3.org/2000/svg" fill="#fff" width="512" height="512" viewBox="0 0 512 512"><path d="M256.031 163.016c32.828 0 59.406-27.047 59.406-60.391 0-33.359-26.578-60.422-59.406-60.422-32.844 0-59.484 27.062-59.484 60.422 0 33.344 26.641 60.391 59.484 60.391m-.109 130.765h-60.641v-50.625l-50.266 49.156c-21.719 22.047-51.141-6.234-29.391-28.312l79.594-67.5c6.391-6.484 13.453-10.656 24.703-10.656h71.375c11.172 0 18.719 4.016 25.392 10.656l80.358 68.281c20.734 21.062-9.531 49.578-29.358 28.312l-46.484-50.188v50.875h-59.047l-6.235.001zm62.203 19.36l-47.219 48.031 34.656 35.156-35.517 36.109c-20.969 21.297 7.953 51.702 29.642 29.719l56.155-59.328c12.095-12.547 15.438-35.625 2.5-48.766-.076-.031-40.217-40.921-40.217-40.921m-125.031 0l47.219 48.031-34.688 35.156 35.531 36.109c20.985 21.297-7.969 51.702-29.688 29.719l-56.188-59.328c-12-12.547-15.344-35.625-2.406-48.766.001-.031 40.22-40.921 40.22-40.921"/></svg>