<svg xmlns="http://www.w3.org/2000/svg" fill="#fff" width="512" height="512" viewBox="0 0 512 512"><path d="M423.516 342.375c-18.28 0-33.108-14.812-33.108-33.094 0-18.297 14.828-33.125 33.108-33.125 18.281 0 33.109 14.828 33.109 33.125 0 18.281-14.828 33.094-33.109 33.094zm-22.704 28.797l32.922-7.062c7.375-2.452 15.328 1.562 17.766 8.923 2.438 7.391-1.562 15.327-8.938 17.78l-40.438 8.673c-5.594 1.858-11.469-.031-15.078-4.251-9.547 5.859-15.547 3.423-22.469-3.094l-25.297-29.406c-18.188.812-45.173.734-85.344.734H73.375c-9.938 0-18-8.047-18-18 0-9.938 8.062-18 18-18 0 0 203.125-14.594 268.875-17.578.469 0 .891-.108 1.344-.062 6.844-.297 12.562-.517 15.75-.517 6.094 0 13.719 19.188 15.797 30.938l23.642 27.219c.967 1.125 1.498 2.422 2.029 3.703zM292.375 296.75L239.5 245.375l-26.438 46.094h-87.281l60.641-98.156c10.562-16.844 32.781-21.938 49.625-11.375 9.375 5.875 14.641 15.375 16.062 25.516l66.219 64.358c6.875 7.156 6.672 18.547-.5 25.438s-18.562 6.672-25.453-.5zM272.25 181.812c-19.344 0-35-15.688-35-35.016 0-19.312 15.656-35 35-35 19.328 0 34.984 15.688 34.984 35 0 19.329-15.656 35.016-34.984 35.016z"/></svg>