<svg xmlns="http://www.w3.org/2000/svg" fill="#fff" viewBox="0 0 512 512">
  <path d="m333,102l-57.75,0l0,38.5l43.428,0l11.55,38.5l-121.6754,0l-12.83333,-19.25l21.78073,0l0,-38.5l-96.25,0l0,38.5l28.19766,0l25.66641,38.5l-17.556,26.334c-11.20376,-4.56738 -23.46203,-7.084 -36.30807,-7.084c-53.15746,0 -96.25,43.09305 -96.25,96.25c0,53.15695 43.09254,96.25 96.25,96.25c46.56447,0 85.40712,-33.06637 94.325,-77l40.425,0l19.25,0l0,-19.25c0,-24.83507 8.34295,-49.4956 22.41342,-67.58803c11.6886,-15.02783 26.84092,-25.03912 44.35713,-27.85347l3.1878,10.626c-30.18785,16.24443 -50.70835,48.13398 -50.70835,84.8155c0,53.15695 43.09305,96.25 96.25,96.25c53.15695,0 96.25,-43.09305 96.25,-96.25c0,-53.15695 -43.09305,-96.25 -96.25,-96.25c-2.91958,0 -5.80837,0.12962 -8.6625,0.385l-30.64985,-102.16642l-4.11565,-13.71858l-14.322,0zm-211.75,154c4.89733,0 9.65221,0.60958 14.19303,1.75688l-30.21005,45.3145l-19.95198,29.92862l35.96901,0l54.46338,0c-7.92715,22.4301 -29.31865,38.5 -54.46338,38.5c-31.89443,0 -57.75,-25.85532 -57.75,-57.75c0,-31.89468 25.85557,-57.75 57.75,-57.75zm35.96927,38.5l18.49412,0c-1.96735,-5.5671 -4.76502,-10.74278 -8.24285,-15.37818l-10.25127,15.37818zm32.35925,-48.53823c12.95653,13.05792 22.19525,29.81055 25.99648,48.53823l22.407,0c3.36233,-26.29293 13.50708,-51.68112 29.29208,-71.97447c1.32953,-1.7094 2.70142,-3.38543 4.11693,-5.02553l-62.83842,0l-18.97408,28.46177zm167.08743,21.16473l15.6464,52.15467l36.8753,-11.06233l-15.64512,-52.1521c30.59723,1.45658 54.95747,26.72542 54.95747,57.68327c0,31.89468 -25.85532,57.75 -57.75,57.75c-31.89468,0 -57.75,-25.85532 -57.75,-57.75c0,-19.14605 9.317,-36.11685 23.66595,-46.6235z" clip-rule="evenodd" fill-rule="evenodd"/>
</svg>
