<svg xmlns="http://www.w3.org/2000/svg" fill="#fff" width="512" height="512" viewBox="0 0 512 512"><path d="M361.047 382.219H150.953c-21.25 0-38.484-17.234-38.484-38.484V96.375c0-21.234 17.234-38.469 38.484-38.469h210.094c21.25 0 38.484 17.234 38.484 38.469v247.359c0 21.25-17.234 38.485-38.484 38.485zm-31.703-17.469c19.125 0 34.625-15.5 34.625-34.625s-15.5-34.625-34.625-34.625-34.641 15.5-34.641 34.625 15.516 34.625 34.641 34.625zm-146.203 0c19.125 0 34.609-15.5 34.609-34.625S202.266 295.5 183.141 295.5s-34.625 15.5-34.625 34.625 15.5 34.625 34.625 34.625zM364.25 112.797c0-10.625-8.625-19.234-19.234-19.234H167.172c-10.609 0-19.219 8.609-19.219 19.234v105.75c0 10.625 8.609 19.234 19.219 19.234h177.844c10.609 0 19.234-8.609 19.234-19.234v-105.75zM184.234 436.094c0 9.938-8.062 18-18 18h-18c-9.938 0-18-8.062-18-18v-36h54v36zm198 0c0 9.938-8.062 18-18 18h-18c-9.938 0-18-8.062-18-18v-36h54v36z"/></svg>