<svg xmlns="http://www.w3.org/2000/svg" fill="#fff" width="512" height="512" viewBox="0 0 512 512"><path d="M470.818 256.001c0 116.857-94.732 211.591-211.591 211.591-57.721 0-109.834-23.282-147.956-60.793l-37.559 37.558c-7 7-13.874 4.71-15.273-5.091L41.363 319.744c-1.4-9.8 5.473-16.673 15.273-15.273l119.521 17.075c9.801 1.4 12.092 8.273 5.092 15.273l-36.719 36.719c29.65 28.96 69.972 47.034 114.695 47.034 90.889 0 164.571-73.681 164.571-164.571 0-6.534-.483-12.945-1.224-19.279l47.615 6.802c.244 4.151.631 8.264.631 12.477zM95.175 266.315c-.213-3.428-.521-6.831-.521-10.314 0-90.891 73.682-164.572 164.572-164.572 39.107 0 74.821 13.879 103.047 36.669l-36.577 36.577c-7 7-4.709 13.874 5.091 15.273l119.521 17.075c9.801 1.4 16.674-5.473 15.274-15.274L448.509 62.227c-1.4-9.8-8.273-12.09-15.273-5.091l-37.519 37.519c-36.82-31.277-84.382-50.247-136.49-50.247-116.859 0-211.592 94.733-211.592 211.592l.179 3.549 47.361 6.766zm159.643 97.686v-15.726c-15.886-.502-29.275-3.7-39.902-9.885-8.2-4.834-14.871-11.303-19.995-19.389-5.124-8.068-7.69-15.926-7.69-23.555 0-4.43 1.538-8.227 4.614-11.391 3.076-3.146 6.996-4.729 11.751-4.729 3.858 0 7.119 1.23 9.782 3.691s4.939 6.117 6.829 10.951c2.294 5.748 4.781 10.547 7.444 14.396s6.416 7.031 11.259 9.545c4.125 2.126 9.584 3.152 15.908 3.466V266.56c-1.098-.26-1.959-.506-3.111-.77-12.964-3.041-23.81-6.592-32.546-10.635-8.736-4.078-15.671-9.598-20.795-16.629-5.124-6.996-7.69-15.715-7.69-26.139 0-9.932 2.707-18.738 8.121-26.455s13.245-13.641 23.502-17.789c9.292-3.742 20.269-5.559 32.52-5.913v-14.232a9 9 0 0 1 18 0v14.894c5.203.683 10.05 1.694 14.388 3.176 8.077 2.742 14.783 6.398 20.118 10.934 5.335 4.57 9.229 9.334 11.689 14.344s3.691 9.879 3.691 14.643c0 4.342-1.538 8.262-4.614 11.76-3.076 3.48-6.908 5.221-11.505 5.221-4.184 0-7.365-1.037-9.536-3.146-2.171-2.074-4.535-5.502-7.075-10.266-3.278-6.803-7.216-12.129-11.812-15.926-1.464-1.221-3.315-2.173-5.344-3.003v46.062c6.498 1.726 12.719 3.524 18.325 5.473 8.244 2.865 15.258 6.363 21.041 10.459s10.292 9.281 13.535 15.574c3.243 6.258 4.86 13.957 4.86 23.062 0 10.916-2.812 20.707-8.429 29.408s-13.843 15.504-24.671 20.426c-7.216 3.281-15.66 5.057-24.662 6.151v16.753a9 9 0 0 1-18 .004zm0-131.962v-43.991c-8.828.185-16.117 2.124-21.63 6.078-5.783 4.131-8.675 9.123-8.675 14.941 0 3.604.984 6.732 2.953 9.352s4.676 4.887 8.121 6.768 6.935 3.357 10.459 4.43c2.059.625 5.144 1.465 8.772 2.422zm18 39.402v48.267c4.345-1.261 8.208-3.123 11.558-5.629 6.768-5.027 10.151-11.338 10.151-18.879 0-5.994-1.828-10.846-5.476-14.59-3.647-3.727-8.367-6.574-14.15-8.543-.595-.202-1.448-.421-2.083-.626z"/></svg>