<svg xmlns="http://www.w3.org/2000/svg" fill="#fff" viewBox="0 0 512 512"><path d="M437.5 141.8c0-6.9-5.6-12.5-12.5-12.5H81.7c-6.9 0-12.5 5.6-12.5 12.5v253.1c0 6.9 5.6 12.5 12.5 12.5h33.2c6.7 0 12.2-5.2 12.5-11.9l8.7-182.1h13v24.3c0 6.9 5.6 12.5 12.5 12.5h184.2c6.9 0 12.5-5.6 12.5-12.5v-24.3h12.3l8.7 182.1c.3 6.7 5.8 11.9 12.5 11.9H425c6.9 0 12.5-5.6 12.5-12.5V202.3c0-.4.1-.9.1-1.4v-59.1zm-104.2 71.6v11.8H174.1v-70.9h159.2v59.1zm-230.4 169h-8.8v-167h16.7l-7.9 167zm21.1-194H94.2v-34.1h54.9v34.1H124zm234.3-34.1h54.2v34.1h-54.2v-34.1zm54.2 228.1h-8.8l-8-167h16.7v167z"/><path d="M270.3 177.3H236c-6.4 0-11.7 4.9-12.4 11.1 0 .5-.1.9-.1 1.4 0 6.9 5.6 12.5 12.5 12.5h34.3c6.9 0 12.5-5.6 12.5-12.5 0-.5 0-.9-.1-1.4-.6-6.3-5.9-11.1-12.4-11.1z"/></svg>