<svg xmlns="http://www.w3.org/2000/svg" fill="#fff" viewBox="0 0 512 512"><path d="M243.9 347.3c-21-4.9-37.5-15.6-49.3-33.3-7.1-10.7-11.6-22.6-12.1-35.3-.7-18.3-.2-36.7-.2-55.7h28.3v-47.6c0-7.3 3.5-12.5 9.3-14.5 10.2-3.5 19.4 2.8 19.6 13.8.3 13.6.1 27.2.1 40.9v6.9h37.8v-32.8c0-5-.1-9.9 0-14.9.2-8.9 6.4-15.2 14.7-15.1 8.1.1 14.2 6 14.3 14.8.2 14 .1 28.1.1 42.1 0 1.8.2 3.6.3 6h28.6c0 11.5.3 22.3-.1 33.2-.4 11.5.1 23.3-2.6 34.4-6.8 28.6-25.3 46.9-53.5 55.4-1.7.5-3.5 1.1-5.7 1.7v5.5c0 23.3.2 46.6-.1 69.9-.1 5.9 1.5 7.5 7.3 6.7 47.7-6.3 86.9-27.8 116.5-65.6 73-93.2 39-226.6-69.8-273.2-70.9-30.3-157.8-11.5-210.2 56.6-51.1 66.5-46.8 164 10.3 226.1 15.6 16.9 33.5 30.4 54 40.8 3.8 2 7.7 5.1 10 8.6 3.4 5.2 1.6 12.2-2.7 16.4-4.5 4.4-11.3 6-17.1 2.6-13.8-7.9-28.2-15-40.6-24.7-109-85.7-105.4-250.9 7.4-331.6C260.2-1.6 430.4 65 461.4 212.6c23.9 113.9-51.2 223.4-166 244.7-7.2 1.3-14.8 2.3-22.1 1.8-17.7-1-29.5-14.1-29.5-31.8v-73.7c.1-1.7.1-3.9.1-6.3z"/></svg>