<svg xmlns="http://www.w3.org/2000/svg" fill="#fff" viewBox="0 0 512 512">
  <path d="m277.56826,88.67038l111.55175,-18.59218l0,71.71269l-111.55175,-15.93615l0,-6.49212c-0.21142,0.01009 -0.4239,0.01514 -0.63745,0.01514l-21.59296,0c-0.89986,3.03717 -2.38724,5.82201 -4.32985,8.22279l0,11.53432c0,0.96759 -0.2587,1.87462 -0.71075,2.65603l8.67856,0c23.47024,0 42.49641,19.02617 42.49641,42.49641l0,2.65603l-140.76936,0l0,-2.65603c0,-23.47024 19.02644,-42.49641 42.49641,-42.49641l10.62437,0l0,-14.19035c-1.34661,-1.66373 -2.47409,-3.51206 -3.33916,-5.50116c-12.21958,1.64089 -24.64208,4.19758 -34.12913,8.07883c-9.06581,3.70861 -16.17785,14.50323 -21.08486,28.01363c-2.29029,6.3062 -3.79015,12.35344 -4.71498,16.85169c-0.45923,2.23372 -0.76892,4.04752 -0.96015,5.27221c-0.09562,0.61142 -0.16096,1.07357 -0.20048,1.36467c-0.01973,0.14528 -0.03293,0.24807 -0.04013,0.30491l-0.00537,0.0425l-13.18799,-1.56148c-13.18937,-1.55006 -13.18847,-1.55749 -13.18847,-1.55749l0.00104,-0.00876l0.0025,-0.02098l0.00677,-0.05604l0.02074,-0.1668c0.01708,-0.13546 0.04085,-0.31872 0.07182,-0.54688c0.06191,-0.45631 0.1528,-1.09375 0.27708,-1.89003c0.24831,-1.59069 0.63163,-3.82574 1.18661,-6.52479c1.10368,-5.36809 2.91719,-12.72475 5.76628,-20.56933c5.37194,-14.79141 15.84277,-35.28663 35.99308,-43.52987c14.41664,-5.89771 32.41653,-8.98895 47.5248,-10.6623l0,-14.23077c0,-2.93377 2.37821,-5.31205 5.31205,-5.31205l26.56026,0c2.93358,0 5.31205,2.37829 5.31205,5.31205l0,12.11522l25.92281,-0.00005c0.21354,0 0.42603,0.00505 0.63745,0.01503l0,-4.16213zm-141.40686,91.79597l13.18706,1.56945c-0.86555,7.27406 -7.45926,12.47509 -14.73699,11.61985c-7.28428,-0.85604 -12.49546,-7.45493 -11.63945,-14.73935l13.18937,1.55006zm109.53455,-67.89174c0,7.33435 -5.94578,13.28013 -13.28013,13.28013c-7.33461,0 -13.28013,-5.94578 -13.28013,-13.28013c0,-7.33435 5.94551,-13.28013 13.28013,-13.28013c7.33435,0 13.28013,5.94578 13.28013,13.28013zm55.77627,84.99282l-140.7691,0l0,209.82603l140.7691,0l0,-209.82603zm0,220.45013l-140.7691,0l0,10.6241c0,7.33329 5.94551,13.28013 13.28013,13.28013l114.20911,0c7.33435,0 13.27986,-5.94684 13.27986,-13.28013l0,-10.6241z" clip-rule="evenodd" fill-rule="evenodd"/>
</svg>
