<svg xmlns="http://www.w3.org/2000/svg" fill="#fff" width="512" height="512" viewBox="0 0 512 512"><path d="M472 274h-18v-36h18c9.953 0 18 8.047 18 18s-8.047 18-18 18zm-36 0v54c0 14.906-12.094 27-27 27s-27-12.094-27-27V184c0-14.906 12.094-27 27-27s27 12.094 27 27v90zm-99 99c-19.875 0-27-16.125-27-36V175c0-19.875 7.125-36 27-36s27 16.125 27 36v162c0 19.875-7.125 36-27 36zM220 238h72v36h-72v-36zm-45 135c-19.875 0-27-16.125-27-36V175c0-19.875 7.125-36 27-36s27 16.125 27 36v162c0 19.875-7.125 36-27 36zm-72-18c-14.922 0-27-12.094-27-27V184c0-14.906 12.078-27 27-27s27 12.094 27 27v144c0 14.906-12.078 27-27 27zm-45-81H40c-9.938 0-18-8.047-18-18s8.062-18 18-18h18v36z"/></svg>