<svg xmlns="http://www.w3.org/2000/svg" fill="#fff" width="512" height="512" viewBox="0 0 512 512"><path d="M459.737 181.585l-16.031 24.046c-5.491 8.238-17.799 12.846-27.35 10.243l-31.28-8.53c-9.552-2.605-18.713-.686-20.36 4.265-1.647 4.949-9.818 4.638-18.161-.692l-23.665-15.122c-8.342-5.331-15.168-17.792-15.168-27.692V94.609c0-9.9 7.081-14.067 15.735-9.258l130.531 72.516c8.652 4.808 11.241 15.481 5.749 23.718zM69.33 74.249l211.5 118.216a9.001 9.001 0 0 0 8.783-15.713L78.112 58.536a9.002 9.002 0 0 0-12.248 3.465c-2.424 4.34-.873 9.823 3.466 12.248zm259.063 164.393l-43.211-26.598c-8.431-5.19-23.429-9.435-33.329-9.435H107.179c-.654-.991-1.088-2.086-1.958-2.956l-25.136-25.136c-7-7-18.456-7-25.456 0-6.999 7-6.999 18.456 0 25.455l19.352 19.352c-.034.446-.26.829-.26 1.284v216c0 9.9 8.1 18 18 18s18-8.1 18-18v-73.545l80.548 80.548c6.999 6.999 18.455 6.999 25.455 0 7-7 7-18.456 0-25.456l-71.547-71.547h163.544v90c0 9.9 8.1 18 18 18s18-8.1 18-18V266.076c0-9.899-6.897-22.245-15.328-27.434z"/></svg>