<svg xmlns="http://www.w3.org/2000/svg" fill="#fff" viewBox="0 0 512 512"><path d="M457.32 227.57c0 16.64-2 50.11-18.25 50.11h-.37c-14.17-.43-10.21-25.53-10.21-42.46v-50.87H414.9c-1.59 60-.88 124.28-.88 188.5 0 21.63 2.5 46.52-9.62 46.52h-5.71c-15.27 0-13.28-16.48-13.28-38V269.66h-28.1c-1.84 37.27-.39 76.58-.39 76.58l-28.68-13.37-.45-148.51h-13.18c-1.59 15.49-.86 33.22-.86 50 0 17.9 2.48 42.09-10.68 43.3-.47 0-1.37-.84-1.8-.84-14.88 0-16.34-24.57-16.34-42.47 0-37.78-1.59-86.46 21.47-99.44 6.9-3.9 17.81-3 29.32-3v.92c8.84 0 18.57-.43 28.52-.43 7.63 0 37.58-.26 44.62-.26 12.68 0 23.56.82 31 5.37 20.46 12.49 17.46 52.44 17.46 90.06zM368 112.82a27.79 27.79 0 0 1-5.1-.45c-14.45-2.65-27.82-24.61-17.82-41.64 3.31-5.63 9.29-11.19 20.39-12.72a27.53 27.53 0 0 1 3.84-.26c15.18 0 31.43 11.9 27.54 33.39-2.45 13.59-16.12 21.68-28.85 21.68zM246.35 264.11h-1.06c-12.41-.57-16-28.07-18.68-37.36-4.82-16.08-11.09-28.37-14.54-43.33l-20.89.9c10.76 43.33 22.3 63.85 22.3 119.34h-14.36V332L170 348.13v-44.5h-28.7v102.81a14.35 14.35 0 0 1-14.35 14.35c-7.93 0-13.9-6.43-13.9-14.35V303.63H83.61c10.84-43.21 23.47-76.6 34.86-119.34l-21-.9c-6.76 14.37-7.26 28-11.81 43.33-2.22 7.47-7.9 36.35-18.66 37.36-.69.06-1.35.1-2 .1-14.84 0-9.66-17.76-6.56-28.11 4.29-14.07 9.94-33.54 14.47-48.44 7.08-23.31 11.88-52 39.91-54.22 6.53-.53 16-.94 26.07-.94 17.39 0 64.21-1.45 72.25 2.51 21.25 10.49 27.47 52.48 34.94 77.32 1.78 5.74 4.35 14.07 6.82 22.07 3.51 11.29 9.23 29.74-6.55 29.74zm-89-150.6a28.91 28.91 0 0 1-10.49-2c-9.71-3.71-18.57-15.2-17-29.68 1.29-11.8 9.82-20.56 21.23-22.94a30.94 30.94 0 0 1 6.27-.65c13.25 0 25.51 8.45 27.7 21 3.04 17.31-10.25 34.27-27.68 34.27zm108.3 212.88a25.18 25.18 0 1 0-24.79-25.17 25 25 0 0 0 24.79 25.17m0 54.5h-25.32v-21.1l-20.95 20.49c-9.05 9.19-21.31-2.6-12.25-11.8l33.17-28.13a13.35 13.35 0 0 1 10.3-4.44h29.75a14 14 0 0 1 10.58 4.44l33.49 28.46c8.64 8.78-4 20.66-12.24 11.8l-19.37-20.92v21.2H265.6zm25.88 8.11l-19.68 20 14.44 14.65-14.8 15c-8.74 8.88 3.31 21.55 12.35 12.39l23.4-24.73c5-5.23 6.43-14.85 1-20.32l-16.76-17.06m-52.11 0l19.68 20-14.46 14.65 14.81 15c8.75 8.88-3.32 21.55-12.37 12.39l-23.42-24.73c-5-5.23-6.4-14.85-1-20.32l16.76-17.06"/></svg>