<svg xmlns="http://www.w3.org/2000/svg" fill="#fff" width="512" height="512" viewBox="0 0 512 512"><path fill-rule="evenodd" clip-rule="evenodd" d="M211.361 224.044l34.182 34.184c-19.697 10.044-26.015 6.318-34.126-1.793-8.498-8.498-11.257-18.873-.056-32.391zm76.286 45.772l35.149 35.149c11.011-13.712 15.147-30.209 5.879-39.481-8.498-8.498-21.52-5.906-41.028 4.332zm178.542 16.216L286.176 466.043c-7.616 7.616-20.077 7.616-27.693 0L50.778 258.338c-7.616-7.616-12.211-22.505-10.208-33.088L65.597 92.952C67.599 82.37 77.86 71.896 88.401 69.678l137.07-28.859c10.541-2.218 25.394 2.196 33.012 9.814l207.706 207.706c7.614 7.614 7.614 20.074 0 27.693zM158.382 131.454c0-16.466-13.347-29.813-29.81-29.813-16.466 0-29.815 13.347-29.815 29.813 0 16.463 13.349 29.812 29.815 29.812 16.463-.001 29.81-13.349 29.81-29.812zm183.746 193.194c22.208-26.843 29.228-62.059 7.983-83.306-20.666-20.664-48.559-16.333-85.252 5.686l-37.082-37.082c8.111-5.024 18.524-9.641 29.34-12.346 3.091-.77 5.6-2.122 7.531-4.054 5.987-5.989 6.181-15.453.194-21.438-4.635-4.635-10.237-4.829-15.066-3.476-14.483 3.281-29.709 11.169-42.455 21.211l-7.808-7.807c-4.637-4.637-11.5-5.112-16.133-.479-4.637 4.637-3.879 11.219.756 15.854l7.614 7.614c-22.21 26.075-22.439 54.886-1.773 75.55 21.823 21.823 43.207 21.686 78.743.824l38.047 38.05c-12.555 8.69-24.93 12.184-40.574 14.693-3.091.387-6.179 1.933-8.498 4.248-5.989 5.989-5.987 15.257.002 21.245 4.054 4.055 9.076 5.216 14.483 4.055 20.086-3.478 38.628-11.588 54.657-24.527l11.974 11.972c4.637 4.635 10.982 5.632 15.615.995 4.637-4.635 3.926-11.263-.711-15.898l-11.587-11.584z"/></svg>