<svg xmlns="http://www.w3.org/2000/svg" fill="#fff" width="512" height="512" viewBox="0 0 512 512"><path d="M418.752 91.155h-88.925c-24.61 0-62.249-44.91-62.249-44.91-6.367-6.989-16.754-6.952-23.085.079 0 0-37.094 44.831-62.323 44.831H93.245c-9.284 0-13.36 3.94-10.112 13.171 0 0 25.209 53.746 25.209 94.594 0 40.842-32.184 49.806-32.184 119.021 0 69.908 61.292 103.658 97.045 114.705s71.818 33.682 71.818 33.682c8.348 6.273 13.428 6.273 21.467-.477 0 0 34.511-22.5 72.31-33.205 37.798-10.703 97.047-41.045 97.047-114.705 0-71.465-32.44-78.215-32.44-119.021s25.425-94.61 25.425-94.61c3.266-9.222-.124-13.155-10.078-13.155zM302.894 277.176l29.473 95.807-77.184-56.918-77.182 58.451 29.471-97.598-77.175-61.789h95.4l29.486-93.755 29.489 93.755h95.398l-77.176 62.047z"/></svg>