<svg xmlns="http://www.w3.org/2000/svg" fill="#fff" width="512" height="512" viewBox="0 0 512 512"><path d="M224.494 345.738c0 9.94-8.058 18-18 18-6.553 0-12.977-.219-19.25-.658-9.917-.694-17.394-9.297-16.698-19.214.694-9.916 9.297-17.392 19.214-16.698 5.393.378 10.981.57 16.734.57 9.942 0 18 8.059 18 18zm67.755-149.368c.623 9.921 9.17 17.459 19.092 16.837 14.072-.896 27.601-2.796 40.263-6.894 9.454-3.072 14.628-13.228 11.555-22.681-3.072-9.455-13.228-14.628-22.681-11.557-8.442 2.76-19.191 4.449-31.392 5.202-9.922.623-17.46 9.172-16.837 19.093zm-91.485-20.741c-9.942.114-17.908 8.264-17.793 18.204.113 9.94 8.263 17.907 18.204 17.793 1.705-.019 3.422-.029 5.15-.029 9.853 0 20.059.301 30.391.687 9.934.371 18.288-7.382 18.659-17.316s-7.382-18.288-17.316-18.659c-10.516-.392-21.156-.711-31.735-.712-1.854.002-3.709.011-5.56.032zm74.916-80.526c6.616-.16 12.996-.263 19.093-.263 5.646 0 11.05.088 16.171.294 9.933.4 18.31-7.328 18.71-17.262.4-9.933-7.328-18.31-17.261-18.71h.001c-5.726-.231-11.604-.323-17.621-.323-6.498 0-13.159.108-19.963.272-9.938.241-17.8 8.491-17.559 18.43s8.49 17.801 18.429 17.562zm92.814 35.431l-.08 3.705c-.437 9.932 7.259 18.337 17.19 18.776 9.932.437 18.338-7.259 18.776-17.19.076-1.738.114-3.501.114-5.29.051-15.476-3.679-29.563-11.716-40.704-5.796-8.077-17.042-9.927-25.119-4.131-8.077 5.795-9.927 17.041-4.131 25.118 2.778 3.928 4.915 9.54 4.966 19.716zM202.423 96.858c9.94-.005 17.996-8.068 17.99-18.01-.005-9.94-8.068-17.996-18.009-17.99h-.424c-11.591 0-23.282-.25-34.949-.917-9.925-.567-18.431 7.019-18.999 16.944-.567 9.925 7.019 18.431 16.944 18.998 12.521.715 24.896.976 37.003.976h.444zm-80.45 92.926c-13.473 6.4-25.765 16.05-34.66 29.398-5.529 8.262-3.315 19.441 4.947 24.971s19.441 3.315 24.971-4.947h-.001c5.003-7.417 11.477-12.698 20.271-16.943 8.968-4.288 12.763-15.035 8.475-24.004-4.288-8.968-15.035-12.763-24.003-8.475zm6.84 120.373h-.001c-8.678-5.625-14.345-11.963-17.708-19.077-4.233-8.995-14.957-12.855-23.951-8.622-8.996 4.233-12.855 14.957-8.622 23.952 6.64 14.137 17.576 25.512 30.764 33.996 8.353 5.39 19.494 2.987 24.884-5.366 5.389-8.352 2.987-19.493-5.366-24.883zM110.702 71.644c2.583-9.6-3.106-19.475-12.706-22.058a239.367 239.367 0 0 1-16.016-4.902c-9.397-3.246-19.646 1.739-22.892 11.135-3.246 9.397 1.739 19.645 11.136 22.891a275.492 275.492 0 0 0 18.42 5.64c9.6 2.582 19.475-3.106 22.058-12.706zm279.562 282.113l63.639-63.639-38.183 12.728 12.728-38.184-38.184 12.728 12.728-38.183-63.639 63.639-63.639-63.639 12.728 38.183-38.183-12.728 12.728 38.184-38.184-12.728 63.639 63.639-63.639 63.639 38.184-12.728-12.728 38.183 38.183-12.728-12.728 38.184 63.639-63.639 63.639 63.639-12.728-38.184 38.184 12.728-12.728-38.183 38.183 12.728-63.639-63.639z"/></svg>