<svg width="39" height="39" fill="none" xmlns="http://www.w3.org/2000/svg"><path d="M19.5 39C30.27 39 39 30.27 39 19.5S30.27 0 19.5 0 0 8.73 0 19.5 8.73 39 19.5 39z" fill="#000"/><path d="M19.5 39C30.27 39 39 30.27 39 19.5S30.27 0 19.5 0 0 8.73 0 19.5 8.73 39 19.5 39z" fill="#2E7CBE"/><mask id="a" maskUnits="userSpaceOnUse" x="0" y="0" width="39" height="39"><path d="M19.5 39C30.27 39 39 30.27 39 19.5S30.27 0 19.5 0 0 8.73 0 19.5 8.73 39 19.5 39z" fill="#2E7CBE"/></mask><g mask="url(#a)"><path opacity=".46" fill-rule="evenodd" clip-rule="evenodd" d="M0 21.176L.032 0s21.391.093 20.962 24L0 21.176z" transform="translate(19 -1)" fill="url(#paint0_linear)"/></g><path d="M19.5 33.443c7.7 0 13.943-6.243 13.943-13.943 0-7.7-6.243-13.943-13.943-13.943-7.7 0-13.943 6.243-13.943 13.943 0 7.7 6.243 13.943 13.943 13.943z" stroke="#fff" stroke-opacity=".25" stroke-width=".84"/><path d="M19.5 28.643a9.143 9.143 0 1 0 0-18.286 9.143 9.143 0 0 0 0 18.286z" stroke="#fff" stroke-opacity=".5" stroke-width=".84"/><path d="M19.5 23.543a4.043 4.043 0 1 0 0-8.086 4.043 4.043 0 0 0 0 8.086z" fill="#fff"/><path d="M19.5 19.5V0" stroke="#fff" stroke-width=".84"/><defs><linearGradient id="paint0_linear" x2="1" gradientUnits="userSpaceOnUse" gradientTransform="scale(19.2262 21.5359) rotate(54.848 .323 .466)"><stop stop-color="#fff"/><stop offset="1" stop-color="#fff" stop-opacity="0"/></linearGradient></defs></svg>