<svg xmlns="http://www.w3.org/2000/svg" fill="#fff" width="512" height="512" viewBox="0 0 512 512"><path d="M451 138.469c-9.141-23.906-26.219-42.719-48.172-54.906-21.953-12.172-54.125-18.297-85.016-10.281-27.267 7.062-47.156 21.734-62 41.453-10.031-13.578-22.906-24.297-38.609-32.594-15.328-8.094-34.625-13.891-58.453-12.766-26.281 1.25-47.328 10.922-63.047 22.688-15.75 11.812-28.391 28.125-35.781 48.531-8.344 23.062-6.578 50.531 1.781 71.203 4.188 10.391 8.016 20.109 13.109 29.047 5.078 8.922 10.828 17.281 16.641 25.5 22.906 32.406 49.688 63.297 76.172 92.453 27.141 29.906 54.953 59.375 85.016 83.953 4.906-3.438 9.203-7.781 13.453-12.062 4.266-4.266 9.094-8.125 13.469-12.391 43.328-42.438 87.188-85.328 125.375-132.484 15.5-19.108 30.375-39.391 40.392-62.688 5.312-12.375 10.188-24.719 11.703-39.672 1.686-16.719-.971-31.765-6.033-44.984zM340.828 269.531c-32.5 43.953-66.594 88.734-99.188 132.828 12.016-33.328 26.094-77.781 38.609-111.781-16.875-.828-35.297-.125-52.766-.359 7.312-20.312 14.984-32.688 22.312-52.969-21.328-.547-44.016.625-66.25.359 13.406-36.438 26.453-54.938 39.828-91.391h56.672c-7.125 20.141-14.547 33.516-21.75 53.594 19.781.297 39.391.734 59.516.719-7.922 20.297-16.875 34.484-25.156 54.438h61.267c1.219.703-.438-2.453-.703-2.094-3.672 5.437-8.281 11.094-12.391 16.656z"/></svg>