<svg xmlns="http://www.w3.org/2000/svg" fill="#fff" width="512" height="512" viewBox="0 0 512 512"><path d="M328.906 298.156c4.719-3.906 10.516-6.547 17.094-6.547 15.078 0 27.344 12.25 27.344 27.358 0 10.938-6.531 20.25-15.812 24.609l-28.626-45.42zM382 256.312c-13.781 0-24.688-10.344-26.578-23.562-.703 25.125-10.766 47.828-26.828 64.906l-15.781-25.094 7.095 7.094c10.797-13.766 17.516-30.891 17.516-49.75 0-19.281-7-36.734-18.25-50.641l-41.094 41.109h1.891l2.859 4.516.108 13.484h-.155v-1.469l-53.438-.406v1.875h-52.906c1.625 15.438 7.453 29.483 16.516 41.094l8.734-8.733-16.969 26.594c-14.734-15.734-24.578-36.109-26.547-58.953l.141-18c4.859-50.219 46.719-89.609 98.203-89.609 53.375 0 96.578 42.234 98.767 95.078 1.622-13.564 12.716-24.22 26.716-24.22 15.078 0 27.344 12.234 27.344 27.344 0 15.093-12.266 27.343-27.344 27.343zm-205.469-35.937h58.078l-40.922-40.922c-9.249 11.516-15.328 25.485-17.156 40.922zm70.813-70.469c-15.406 1.75-29.359 7.703-40.891 16.859l40.891 40.891v-57.75zm18-.047v57.797l41.031-41.047c-11.563-9.14-25.594-15.047-41.031-16.75zm80.875 70.516v18h-64.922l1.531-13.484-10.047-4.516h73.438zm-63.438 40.391l112.5 175.625h-36l-92.25-144h-20.484l-93.141 144h-36l111.938-173.047v-34.969h53.438l-.001 32.391zM346 166.312c-15.125 0-27.344-12.25-27.344-27.344 0-15.109 12.219-27.344 27.344-27.344 15.078 0 27.344 12.234 27.344 27.344 0 15.094-12.266 27.344-27.344 27.344zm-90.016-36c-15.094 0-27.328-12.25-27.328-27.344 0-15.109 12.234-27.344 27.328-27.344 15.109 0 27.359 12.234 27.359 27.344.001 15.094-12.249 27.344-27.359 27.344zm-90 36c-15.094 0-27.328-12.25-27.328-27.344 0-15.109 12.234-27.344 27.328-27.344 15.109 0 27.359 12.234 27.359 27.344.001 15.094-12.249 27.344-27.359 27.344zm17.891 132.329l-28.891 45.267c-9.594-4.234-16.328-13.781-16.328-24.938 0-15.109 12.234-27.359 27.328-27.359 6.938-.002 13.063 2.795 17.891 7.03zm-25.531-69.672c0 15.094-12.25 27.344-27.359 27.344-15.094 0-27.328-12.25-27.328-27.344 0-15.109 12.234-27.344 27.328-27.344 15.109 0 27.359 12.234 27.359 27.344zm98.468 83.812l26.5 42.156.031.03c0 15.109-12.25 27.345-27.359 27.345-14.562 0-26.219-11.5-27.031-25.875l27.859-43.656z"/></svg>