<svg xmlns="http://www.w3.org/2000/svg" fill="#fff" width="512" height="512" viewBox="0 0 512 512"><path d="M472 345.669c0-9.942-8.058-18-18-18H184.991L168.203 96.327A17.98 17.98 0 0 0 150.25 79.63H58c-9.942 0-18 8.06-18 18 0 9.942 8.058 18 18 18h75.508l16.789 231.342a17.979 17.979 0 0 0 17.953 16.697h15.294c-5.655 7.522-9.13 16.773-9.132 26.911.005 24.855 20.143 44.993 45 45 24.855-.007 44.993-20.143 44.999-45-.002-10.138-3.477-19.389-9.132-26.911h126.265c-5.655 7.522-9.13 16.773-9.132 26.911.005 24.855 20.143 44.993 45 45 24.855-.007 44.993-20.143 44.999-45-.002-10.138-3.477-19.389-9.132-26.911H454c9.942 0 18-8.058 18-18zM246.412 390.58c-.027 14.907-12.093 26.973-27 27-14.908-.027-26.974-12.093-27.001-27 .026-14.61 11.635-26.416 26.13-26.911h1.742c14.495.496 26.103 12.302 26.129 26.911zm198 0c-.027 14.907-12.093 26.973-27 27-14.908-.027-26.974-12.093-27.001-27 .026-14.61 11.635-26.416 26.13-26.911h1.742c14.495.496 26.103 12.302 26.129 26.911zM400 130.42h-18v-18c0-19.801-16.2-36-36-36h-36c-19.8 0-36 16.199-36 36v18h-18v162h144v-162zm-36 0h-72v-18c0-9.9 8.1-18 18-18h36c9.9 0 18 8.1 18 18v18zm72 162h-18v-162h18c9.9 0 18 8.1 18 18v126c0 9.899-8.1 18-18 18zm-234-18v-126c0-9.9 8.1-18 18-18h18v162h-18c-9.9 0-18-8.101-18-18z"/></svg>