<svg xmlns="http://www.w3.org/2000/svg" fill="#fff" width="512" height="512" viewBox="0 0 512 512"><path d="M256.156 39.938v144.453h-36.141V39.938h-35.688v144.453h-36.5V39.938H112l-.047 165.656c.047 17.719 28.969 50.062 71.75 50.062l.484 169.719v32.141c0 8.859 6.094 16.062 14.953 16.062h4.938c8.875 0 16.062-7.203 16.062-16.062V334.047l-.031-78.391c46.829 0 72.109-32.406 72.109-50.141V39.938h-36.062zM147.391 212.672v-7.14 7.14zm216.843-174.25c-26.609 0-36.392 23.078-36.392 49.703v203.906h36.267v164.33c0 8.891 7.188 16.062 16.062 16.062h2.688c8.875 0 17.188-7.172 17.188-16.062V88.125c0-26.625-10.703-49.703-37.312-49.703"/></svg>