<svg xmlns="http://www.w3.org/2000/svg" fill="#fff" width="512" height="512" viewBox="0 0 512 512"><path d="M169.969 246.516l12.875 15.156s35.359-56.031 54.609-21.219c11.391 20.625-10.625 40.953-39.438 112.969-24.359 60.922-25.781 81.906 12.125 109.188 37.5 27 112.234-57.609 112.234-57.609l-9.875-11.375s-63.969 54.781-52.312-15.172c7.608-45.672 28.828-67.484 46.999-109.953 18.22-42.453 21.203-97.547-30.312-103.109-28.062-3.033-106.905 81.124-106.905 81.124zM293.516 44.062c-26.812 0-48.547 21.734-48.547 48.531 0 26.812 21.734 48.531 48.547 48.531 26.781 0 48.517-21.719 48.517-48.531-.002-26.796-21.736-48.531-48.517-48.531z"/></svg>