<svg xmlns="http://www.w3.org/2000/svg" fill="#fff" width="512" height="512" viewBox="0 0 512 512"><path d="M427 496.5H85c-19.875 0-36-16.109-36-36V208.516c0-19.891 16.125-36 36-36h342c19.875 0 36 16.109 36 36V460.5c0 19.891-16.125 36-36 36zm-18-251.984c0-9.938-8.047-18-18-18H121c-9.938 0-18 8.062-18 18V424.5c0 9.953 8.062 18 18 18h270c9.953 0 18-8.047 18-18V244.516zM265 406.5c0-39.75 14.234-54 54-54s54 14.25 54 54v1.797H265V406.5zm54-72c-19.875 0-36-16.109-36-36 0-19.875 16.125-35.984 36-35.984s36 16.109 36 35.984c0 19.891-16.125 36-36 36zm-180 72c0-39.75 14.234-54 54-54s54 14.25 54 54v1.797H139V406.5zm54-72c-19.875 0-36-16.109-36-36 0-19.875 16.125-35.984 36-35.984s36 16.109 36 35.984c0 19.891-16.125 36-36 36zm155.344-187.578c-7.062 7.062-16.266 7.062-23.328 0l-44.531-43.047c-13.844-15.812 8.75-35.516 21.312-21.297l18.266 22.781-.53-71.984c-.22-23.719 34.094-23.969 34.312 0l-.5 71.984 18.438-22.594c12.78-14.016 35.219 5.5 21.358 21.344l-44.797 42.813zM210.062 95.453l-18.5-22.625.547 62.984c-.203 23.969-34.531 23.719-34.328 0l.469-62.984-18.188 22.812c-12.578 14.188-35.188-5.484-21.359-21.359l44.547-53.5c7.094-7 16.25-7.078 23.328 0l44.828 53.312c13.766 15.813-8.64 35.345-21.344 21.36z"/></svg>