<svg xmlns="http://www.w3.org/2000/svg" fill="#fff" width="512" height="512" viewBox="0 0 512 512"><path d="M409.453 201.938c-38.484 0-69.703-14.688-69.703-32.812s31.219-32.812 69.703-32.812c38.469 0 69.688 14.688 69.688 32.812s-31.219 32.812-69.688 32.812zm17.125 13.374l-108.672 77.812-33.781-55.047 38.141-48.641c2.578 17.016 32.392 30.5 69.188 30.5 12.874.002 24.796-1.748 35.124-4.624zm-78.89 182.891L81.016 199.5c13.984 5.359 31.562 8.703 50.984 8.703 44.781 0 81.094-17.109 81.094-38.203 0-.391-.203-.734-.219-1.125l134.813 229.328zM114 190.203c-44.812 0-81.125-17.109-81.125-38.203S69.188 113.797 114 113.797c44.781 0 81.094 17.109 81.094 38.203S158.781 190.203 114 190.203zm126.094 159.235l-75.969 46.767 47.672-67.859 28.297 21.092z"/></svg>