<svg xmlns="http://www.w3.org/2000/svg" fill="#fff" width="512" height="512" viewBox="0 0 512 512"><path d="M497.094 149.875l-61.5 229.531c-5.656 21.108-27.375 33.656-48.5 28l-38.438-10.312c3.312-5.703 5.358-12.156 5.483-19.031l38.095 10.22c10.562 2.827 21.422-3.453 24.233-14.017l61.5-229.516c2.845-10.562-3.438-21.406-14-24.25L330.094 84.641c-10.562-2.844-21.406 3.438-24.25 13.984l-.109.438-.28-1.656c-1.375-7.734-4.97-14.5-9.922-19.891 9.641-10.781 24.75-16.016 39.688-12l133.875 35.859c21.138 5.672 33.67 27.391 27.998 48.5zM283.656 416.281l-175.484 30.953c-21.547 3.797-42.078-10.609-45.891-32.142l-48.14-272.984c-3.797-21.547 10.609-42.094 32.141-45.891L221.75 65.281c21.562-3.797 42.094 10.594 45.891 32.125l48.142 273c3.795 21.532-10.58 42.078-32.127 45.875zm12.61-42.437l-48.125-273c-1.891-10.766-12.156-17.969-22.938-16.062l-175.5 30.938c-10.766 1.906-17.953 12.172-16.047 22.953l48.125 272.984c1.906 10.781 12.172 17.969 22.938 16.062l175.5-30.938c10.765-1.89 17.953-12.156 16.047-22.937zm-85.828-68.375c-3.078.547-8.172 1.766-14.578.344-7.594-3.062-16.078-10.483-19.875-28 0 0-1.859 31.109 27.797 56.5.969 1.234 2.688 11.142 3.703 12.017 0 0-31.766-1.359-36.234-.517-4.469.734-20.016 2.047-20.016 2.047.656-1.172.438-6.875.938-8.344 23.656-19.5 8.703-59.031 8.703-59.031 2.406 17.75-3.031 27.642-9.109 33.109-5.562 3.531-10.766 4.109-13.828 4.656-6.766 1.188-17.469-2.922-27.891-11.062-10.406-8.141-11.953-25.328-10.531-34.672 1.375-8.844 43.406-100.906 47.922-110.766l-.141-.797.359.359a3.81 3.81 0 0 1 .203-.469l.141.797c7.609 7.719 78.594 79.859 82.875 87.703 4.562 8.298 8.984 24.984 1.969 36.188-6.97 11.219-15.642 18.735-22.407 19.938zm120.75-86.047c.453.047.25.031.734.094 5.625.828 6.484 5.5 11.25 8.688-.359-9.672-5.438-15.281-2.266-27 .266-.984.531-1.953.766-2.906 5.062-11.812 12.203-15.641 21.703-16.297 17.312-1.188 34.75 12.969 34.688 28.062-.016 13.391-9.219 19.969-20.266 28.969 9.688-.281 14.5-4.469 24.922.422 9.219 4.344 13.047 16.844 12.812 22.203-.892 20.405-18.812 34.391-34.562 29.827-7.125-2.03-9-5.766-11.578-9.344-5.141-7.125-5.344-12.047-8.858-19.578-3.125 2.609-7.595 6.984-7.781 10.22-.234 4.266-1.5 7.78-1.219 11.391.328 4.031-2.703 14.188-.734 17.531 2.609 4.453 6.547 7.078 2.828 9.516-5.406-2-14.422-.405-20.656-1.938l7.797-26.375c4.578-6.703 5.688-15.25 5.203-24.25-2.25 5.688-10 9.655-14.172 12.141l-.611-51.376z"/></svg>