<svg xmlns="http://www.w3.org/2000/svg" fill="#fff" width="512" height="512" viewBox="244 -244 512 512"><path d="M511.5-89.9c-21.9 2-44.4-5.1-61.2-21.8s-23.8-39.3-21.8-61.2c21.9-2 44.4 5.1 61.2 21.8s23.8 39.3 21.8 61.2zM457.3 34.7c4.8-8.8 10.1-17.6 16.7-26.5 3.6-4.9 6.7-9.9 9.6-14.8-4.6-11.7-11.2-22.7-20.7-32.2C442-59.6 413.8-68.4 386.4-66c-2.5 27.4 6.3 55.6 27.3 76.5 12.5 12.5 27.7 20.2 43.6 24.2zm-20.5 56.6c-2.9-3.8-5.9-7.5-9.4-10.9-23.6-23.6-55.3-33.5-86.1-30.7-2.8 30.8 7.1 62.5 30.7 86.1 18.7 18.7 42.5 28.6 66.9 30.6-5.4-22.4-7.1-47.9-2.1-75.1zm89.5 150.1c8.9-7.7 9.9-21.1 2.2-30-2.9-3.4-69.2-82.9 1-177.7 90.1-121.7 1-246.3.1-247.6-6.9-9.5-20.2-11.5-29.7-4.6s-11.6 20.2-4.7 29.8c2.9 4.1 71.3 100.9.1 197-72.8 98.3-31.1 194.2 1.1 231.1 4.2 4.8 10.1 7.3 16 7.3 4.9-.1 9.9-1.8 13.9-5.3zm60.1-369.9c17.4-1.4 34.4-8.3 47.7-21.6 16.8-16.8 23.8-39.3 21.8-61.2-21.9-2-44.4 5.1-61.2 21.8-8.2 8.2-14 17.8-17.7 28.1 3.7 9.9 6.9 21 9.4 32.9zm3.9 59c-2.1 26.6-9.8 55-26.7 83.8 24.2-.2 48.2-8.7 66.7-27.2 20.9-20.9 29.8-49.1 27.3-76.5-23.7-2.2-47.6 4.7-67.3 19.9zm-47.9 171.1c-10.2 10.2-17.7 22-22.9 34.5 2 20.7 8.4 38.3 15 51.2 23.1-2.7 45.5-12.7 63.3-30.4 23.6-23.6 33.5-55.3 30.7-86.1-30.8-2.7-62.5 7.2-86.1 30.8z"/></svg>