<svg xmlns="http://www.w3.org/2000/svg" fill="#fff" width="512" height="512" viewBox="0 0 512 512"><path d="M238.825 444.786c100.428 6.817 184.402-42.039 207.776-126.414-19.597 97.362-117.593 161.766-221.397 146.839C115.152 449.378 39.676 350.295 50.813 243.115c.323-3.156.66-6.093.996-8.874l26.84 3.881c-9.002 99.445 57.148 199.679 160.176 206.664M346.734 44.643c78.542 38.753 116.804 131.356 86.29 220.026-33.554 97.685-137.914 153.862-233.905 126.466l-8.848 25.637c2.69.815 5.51 1.694 8.524 2.561 103.196 30.992 216.158-29.091 252.298-134.24 34.098-99.173-12.365-203.003-104.359-240.45M234.896 385.904c-68.504-8.382-121.072-67.262-121.486-141.199-.44-81.413 62.554-150.344 141.07-154.936l-.091-21.369c-2.212.052-4.527.155-7.011.297C162.55 72.5 94.176 146.605 94.667 234.227c.466 82.642 62.063 147.745 140.229 151.677m-3.611-206.869h-84.608l68.957 51.326-26.814 81.374 68.116-50.123 68.077 50.123-26.517-81.374 66.279-49.748c7.063 17.217 9.727 36.749 6.817 57.031-8.524 59.657-62.179 103.274-120.154 98.074l-2.277 15.638c1.604.194 3.324.388 5.161.543 62.515 6.48 120.684-40.306 129.868-104.528 8.679-60.549-29.311-114.967-86.109-126.337 30.216 8.356 53.965 30.009 65.995 58.001H281.99l-25.055-79.266-25.65 79.266z"/></svg>