<svg xmlns="http://www.w3.org/2000/svg" fill="#fff" width="512" height="512" viewBox="0 0 512 512"><path d="M141.219 195.031C88.641 216.859 51.594 268.64 51.61 329.14c-.016 80.233 65.016 145.233 145.172 145.219 48.156.016 90.78-23.47 117.155-59.359 8.095-11.016 5.734-26.469-5.28-34.531-10.97-8.078-26.438-5.719-34.517 5.281-17.5 23.828-45.625 39.219-77.358 39.234-52.938-.047-95.734-42.828-95.781-95.844.016-39.812 24.328-74.048 59.156-88.484 12.609-5.234 18.578-19.688 13.344-32.281-5.22-12.594-19.673-18.578-32.282-13.344zm75.64-157.39c-22.141 0-40.094 17.969-40.094 40.078 0 22.188 17.953 40.094 40.094 40.094 22.172 0 40.094-17.906 40.094-40.094 0-22.11-17.922-40.078-40.094-40.078zm218.829 309.171h-30.969c2.562 9.188-11.219-25.797-15.375-40.188 2.781 9.531-2.344-31.517-44.156-31.562h-60.5l-8.969-36.406h53.267c13.608 0 24.672-13.312 24.672-26.938 0-13.641-11.062-26.938-24.672-26.938h-64.859l-1.983-6.312c-3.109-13.297-17.984-34.391-43.298-27.281-22.031 6.188-20.453 24.625-17.344 37.906l37.984 139.923h98.422l29.922 71.688h67.858c13.642 0 24.72-12.188 24.72-25.828s-11.08-28.064-24.72-28.064z"/></svg>