<svg xmlns="http://www.w3.org/2000/svg" fill="#fff" width="512" height="512" viewBox="0 0 512 512"><path d="M301.435 48.211l-83.052-7.475C264.647 55.69 301 103.797 301 152.392v212.872l-6.188 2.717L283 366.392V162.236c0-51.975-36.776-104.309-87.597-115.199S103 69.76 103 121.736v277.318l17.71 5.484 18.29-5.484v-78.029l135.709 44.253-.287-.038v100.33l20.391 5.695 16.813-7.383v-102.66L373 334.145v73.908l17.71 5.484 18.29-5.484V165.892c0-59.401-48.405-112.357-107.565-117.681zM247 220.001l-108-36v-54l108 36v54z"/></svg>