<svg xmlns="http://www.w3.org/2000/svg" fill="#fff" width="512" height="512" viewBox="0 0 512 512"><path d="M251.516 198.797c-20.156 0-38.641-7.016-53.266-18.672-55.016-4.656-74.156-53.172-73.641-53.328 30.25-8.547 37.391-20.656 44.531-36.156 9.938-36.203 43-62.844 82.375-62.844 47.219 0 85.484 38.281 85.484 85.5.001 47.234-38.265 85.5-85.483 85.5zm52.922 18.547s-2.172.265-13.828.031c0 0 .312-2.156-.328.172h-41.016c-41.625 0-58.109-1.031-61.875 0-25.328 6.953-66.656 64.5-66.656 111.75s37.687 100.125 110.531 100.125c50.889 0 58.234-1.124 58.484-25.312.267-23.062-32.608-20.031-52.859-20.251-25.875-.281-62.156-12.891-62.156-51.188 0-26.719 18.562-37.125 18.562-37.125s-12.032 29.469-3.094 47.25c9.532 19 18.563 23.344 24.188 23.344 4.922 0 28.157 2.517 27.391-8.75l-27.25-21.094c-7.781-6.188-9.078-17.516-2.906-25.297 6.188-7.781 17.516-9.094 25.297-2.906l32.875 25.469c3.266 9.672 9.547 17.892 17.656 23.703 20.812 12.859 39.672 8.641 48.844 4.484 8.126 47.531-20.328 88.75-72.312 89.828-108.625 2.203-134.562-57.672-138.218-69.891 14.203 59.547 67.625 102.516 131.531 102.516 74.781 0 133.984-59.203 133.984-133.984-.002-58.156-35.346-113.718-86.845-132.874zm11.937 127.985c-19.719 0-35.719-15.984-35.719-35.72 0-19.719 16-35.719 35.719-35.719 19.75 0 35.719 16 35.719 35.719 0 19.735-15.969 35.72-35.719 35.72z"/></svg>