<svg xmlns="http://www.w3.org/2000/svg" fill="#fff" width="512" height="512" viewBox="0 0 512 512"><path d="M422.5 242.953h-333c-4.969 0-9-4.031-9-9v-18c0-4.984 4.031-9 9-9h333c4.969 0 9 4.016 9 9v18c0 4.969-4.031 9-9 9zm-54.734-118.375l-11.875 63.469h-72l50.406-77.406h.172c-4.562-6.016-7.358-13.453-7.358-21.594 0-19.875 16.108-36 36-36 19.875 0 36 16.125 36 36-.002 18.281-13.705 33.219-31.345 35.531zM359.5 404.953h-207l-36-144h279l-36 144zM310 313.828h-36v-34.875h-36v34.875h-37.125v37.125H238v36h36v-36h36v-37.125zM143.5 422.953h225c4.953 0 9 4.047 9 9v18c0 4.953-4.047 9-9 9h-225c-4.969 0-9-4.047-9-9v-18c0-4.953 4.031-9 9-9z"/></svg>