<svg xmlns="http://www.w3.org/2000/svg" fill="#fff" width="512" height="512" viewBox="0 0 512 512"><path d="M301.047 148.281V94.344l53.906 53.938-53.906-.001zm-18 18h71.906v71.375H157.141V94.344h125.906v71.937zm90.375 53.688h35.875c19.547 0 35.422 15.828 35.422 35.406v91.609c0 19.547-15.875 35.406-35.422 35.406h-35.875v-35.828H139.141v35.828h-36.469c-19.547 0-35.391-15.859-35.391-35.406v-91.609c0-19.578 15.844-35.406 35.391-35.406h36.469v36.359h234.281v-36.359zm-9.469 197.687H148.141l18-53.391h179.812l18 53.391z"/></svg>