<svg xmlns="http://www.w3.org/2000/svg" fill="#fff" width="512" height="512" viewBox="0 0 512 512"><path d="M408.224 297.612c-7.992-4.487-17.273-4.036-17.273-6.507v-53.278c0-19.883-16.117-36-35.998-36H156.951c-19.881 0-36 16.117-36 36v53.278c0 2.495-6.75.333-17.262 6.556-11.052 6.757-18.499 17.707-18.499 31.61v49.36c0 21.247 17.228 38.475 38.475 38.475h264.668c21.249 0 38.475-17.228 38.475-38.475v-49.36c.001-13.941-7.485-24.909-18.584-31.659zm-251.917-41.247c0-9.943 8.059-18 18-18h162.67c9.941 0 18 8.057 18 18v18.023c0 8.577-6.01 15.725-14.042 17.534H170.349c-8.032-1.809-14.042-8.957-14.042-17.534v-18.023zm-13.957 134.84c-19.125 0-34.628-15.503-34.628-34.625 0-19.125 15.503-34.63 34.628-34.63 19.123 0 34.627 15.505 34.627 34.63-.001 19.122-15.504 34.625-34.627 34.625zM291.951 382h-72c-9.9 0-18-8.098-18-18 0-9.898 8.1-18 18-18h72c9.9 0 18 8.102 18 18 0 9.902-8.1 18-18 18zm77.602 9.205c-19.123 0-34.627-15.503-34.627-34.625 0-19.125 15.503-34.63 34.627-34.63 19.125 0 34.628 15.505 34.628 34.63 0 19.122-15.503 34.625-34.628 34.625zm-14.602 45.184h54v16.875c0 9.941-8.059 18-18 18h-17.998c-9.943 0-18.002-8.059-18.002-18v-16.875zm-252 0h54v16.875c0 9.941-8.059 18-18 18h-18c-9.94 0-18-8.059-18-18v-16.875zm302.904-336.26l-15.44-17.69c-3.271-3.269-9.733-5.945-14.359-5.945h-137.36c-12.168-22.527-35.705-35.757-63.103-35.757-39.766 0-72 32.236-72 72s32.234 72 72 72c28.609 0 53.105-16.814 64.719-40.986h18.866c4.626 0 11.086-2.675 14.359-5.947l7.729-7.731c3.272-3.269 8.626-3.269 11.896 0l5.452 5.454c3.271 3.271 8.624 3.271 11.896 0l5.101-5.103c3.271-3.271 8.624-3.271 11.894 0l7.907 7.907c3.271 3.271 8.624 3.271 11.894 0l7.38-7.38c3.271-3.272 8.624-3.272 11.894 0l4.226 4.225c3.271 3.271 8.624 3.271 11.896 0l23.15-23.152c3.276-3.269 3.276-8.624.003-11.895zm-257.261 38.38c-14.911 0-27-12.089-27-27 0-14.909 12.089-27 27-27s27 12.091 27 27c0 14.911-12.089 27-27 27z"/></svg>