<svg xmlns="http://www.w3.org/2000/svg" fill="#fff" width="512" height="512" viewBox="0 0 512 512"><path d="M508.172 241.328c0 20.875-2.453 62.828-22.891 62.828h-.469c-17.767-.516-12.798-32-12.798-53.25v-63.781h-17.047c-1.983 75.297-1.108 155.844-1.108 236.406 0 27.125 3.141 58.344-12.062 58.344h-7.172c-19.141 0-16.641-20.688-16.641-47.719V294.109h-35.25c-2.297 46.733.047 106.405-.484 157.905-.156 17.72-.953 29.859-16.391 29.859-.312 0-6.312-.016-6.625 0-12.109 0-12.953-12.5-12.953-39.875l-.562-254.875h-16.531c-2 19.422-1.077 41.656-1.077 62.719 0 22.453 3.108 52.798-13.392 54.312-.594.047-1.719-1.048-2.25-1.048-18.672 0-20.5-30.812-20.5-53.266 0-47.375-2-108.438 26.906-124.703 8.672-4.891 22.344-3.703 36.781-3.703v1.156c11.094 0 23.281-.547 35.766-.547 9.562 0 47.141-.312 55.969-.312 15.906 0 29.547 1.031 38.892 6.734 25.655 15.566 21.889 65.676 21.889 112.863zM396.156 97.406c-2.172 0-4.312-.172-6.406-.562-18.125-3.312-34.891-30.859-22.344-52.219 4.156-7.062 11.656-14.031 25.562-15.969a35.185 35.185 0 0 1 4.812-.312c19.047 0 39.438 14.922 34.562 41.875-3.076 17.047-20.217 27.187-36.186 27.187zm-152.562 189.75c-.438 0-.875 0-1.328-.047-15.562-.703-20.047-35.203-23.438-46.844-6.047-20.172-13.906-35.578-18.219-54.344l-26.203 1.125c13.5 54.344 32.531 95.328 45.969 149.672h-36.016v128.938c0 9.953-9.734 18-19.688 18s-16.875-8.047-16.875-18V336.719h-36v128.938c0 9.953-8.047 18-18 18s-17.438-8.047-17.438-18V336.719H39.5c13.594-54.188 29.422-96.062 43.719-149.672l-26.328-1.125c-8.5 18.016-9.125 35.141-14.828 54.344-2.781 9.359-9.906 45.578-23.406 46.843-.859.095-1.688.142-2.469.142-18.609 0-12.109-22.281-8.219-35.25 5.375-17.656 12.453-42.078 18.141-60.766 8.875-29.234 14.906-65.219 50.062-68 8.188-.656 20.109-1.172 32.688-1.172 21.812 0 80.547-1.828 90.625 3.141 26.641 13.156 34.453 65.812 43.812 96.969 2.234 7.203 5.469 17.641 8.562 27.672 4.344 14.171 11.532 37.311-8.265 37.311zM132.016 98.266c-4.234 0-8.656-.781-13.156-2.531-12.172-4.641-23.281-19.047-21.312-37.219 1.609-14.797 12.312-25.797 26.625-28.766a38.458 38.458 0 0 1 7.859-.812c16.625 0 31.984 10.594 34.75 26.344 3.765 21.718-12.923 42.984-34.766 42.984z"/></svg>