<svg xmlns="http://www.w3.org/2000/svg" fill="#fff" width="512" height="512" viewBox="0 0 512 512"><path d="M369.391 286.844c-.438 0-.875 0-1.328-.016-15.562-.719-20.047-35.219-23.438-46.875-6.047-20.141-13.906-35.562-18.219-54.328l-26.203 1.125c13.5 54.344 32.531 95.297 45.969 149.672h-36.016V465.36c0 9.952-9.734 18-19.688 18s-16.875-8.048-16.875-18V336.422h-36V465.36c0 9.952-8.047 18-18 18-9.938 0-17.438-8.048-17.438-18V336.422h-36.859c13.594-54.203 29.422-96.062 43.719-149.672l-26.328-1.125c-8.5 18.016-9.125 35.141-14.828 54.328-2.766 9.375-9.906 45.594-23.406 46.875-.859.078-1.688.125-2.469.125-18.609 0-12.109-22.281-8.219-35.266 5.375-17.641 12.453-42.062 18.141-60.75 8.875-29.234 14.906-65.219 50.062-68 8.188-.656 20.109-1.188 32.688-1.188 21.812 0 80.547-1.812 90.625 3.156 26.641 13.156 34.453 65.812 43.812 96.969 2.234 7.188 5.47 17.641 8.562 27.688 4.345 14.157 11.533 37.282-8.264 37.282zM257.812 97.969c-4.234 0-8.656-.781-13.156-2.531-12.172-4.641-23.281-19.047-21.312-37.219 1.609-14.797 12.312-25.797 26.625-28.766a38.458 38.458 0 0 1 7.859-.812c16.625 0 31.984 10.594 34.75 26.328 3.766 21.734-12.922 43-34.766 43z"/></svg>