<svg xmlns="http://www.w3.org/2000/svg" fill="#fff" width="512" height="512" viewBox="0 0 512 512"><path d="M406.125 221.719H105.891c-11.578 0-20.984 9.406-20.984 20.969V451.5c0 11.609 9.406 21 20.984 21h300.234c11.562 0 20.984-9.391 20.984-21V242.688c0-11.563-9.421-20.969-20.984-20.969zM364.109 306L232.547 436.312l-81.906-81.938c-3.609-3.562-4.156-6.938-1.141-10l30.484-30.438c3.062-3.062 6.375-2.5 9.969 1.125l43.219 43.203 91.594-91.608c3.578-3.609 6.922-4.142 9.984-1.095l30.484 30.484c3.016 3.017 2.485 6.361-1.125 9.955zm-176.39-123.078h-62.656v-23.75c0-69.203 56.109-119.672 125.297-119.672 69.203 0 125.312 50.469 125.312 119.672v23.75h-62.641v-23.75c0-34.594-28.062-62.656-62.672-62.656-34.562 0-62.641 28.062-62.641 62.656l.001 23.75z"/></svg>