<svg xmlns="http://www.w3.org/2000/svg" fill="#fff" width="512" height="512" viewBox="0 0 512 512"><path d="M418 470.719H274V306.891c0-19.891-16.125-36-36-36h-72.125v-70.438c0-19.875 16.109-36 36-36H418c19.875 0 36 16.125 36 36v234.266c0 19.875-16.125 36-36 36zM241.891 193.266c-12.016 0-21.797 9.766-21.797 21.797 0 12.016 9.781 21.781 21.797 21.781s21.766-9.766 21.766-21.781c-.001-12.032-9.751-21.797-21.766-21.797zm130.656 0c-12.031 0-21.766 9.766-21.766 21.797 0 12.016 9.733 21.781 21.766 21.781 11.984 0 21.766-9.766 21.766-21.781-.001-12.032-9.782-21.797-21.766-21.797zm-60.75-128.297c-40.484 0-74.203 36.172-81.812 80.391h-21.078c7.906-57.547 50.905-104.5 102.891-104.5 51.969 0 94.953 46.953 102.859 104.5h-21.094c-7.594-44.219-41.344-80.391-81.766-80.391zM174.656 398.078c19.094 0 35.047-19.234 40-45.312-9.156-.922-16.328-8.562-16.328-17.983 0-10 8.125-18.125 18.156-18.125 10.016 0 18.156 8.125 18.156 18.125 0 6.625-3.531 12.327-8.828 15.452-4.531 36.078-25.672 63.359-51.156 63.359-25.109 0-45.906-26.406-50.906-61.641-7.234-2.359-12.484-9.109-12.484-17.172 0-10 8.094-18.125 18.094-18.125 10.062 0 18.172 8.125 18.172 18.125 0 8.234-5.5 15.156-12.984 17.281 4.827 26.469 20.858 46.016 40.108 46.016zM76 471.141c-9.938 0-18-8.047-18-18V308.406c0-9.953 8.062-18 18-18s18 8.047 18 18V453.14c0 9.954-8.062 18.001-18 18.001z"/></svg>