<svg xmlns="http://www.w3.org/2000/svg" fill="#fff" width="512" height="512" viewBox="0 0 512 512"><path d="M364 356.094c-2.766 0-5.516-.641-8.047-1.906l-99.969-49.969-99.938 49.969a18.005 18.005 0 0 1-16.094 0l-108.016-54c-8.875-4.438-12.484-15.25-8.047-24.155 4.453-8.859 15.234-12.5 24.156-8.031L148 317.969 247.953 268a18.005 18.005 0 0 1 16.094 0L364 317.969 463.953 268c8.891-4.453 19.688-.844 24.141 8.031 4.453 8.906.844 19.719-8.047 24.156l-108 54a17.967 17.967 0 0 1-8.047 1.907zm8.047 70.094l108-54c8.891-4.438 12.5-15.25 8.047-24.155-4.453-8.892-15.25-12.453-24.141-8.048L364 389.969l-99.953-49.984a18.012 18.012 0 0 0-16.094 0L148 389.969l-99.953-49.984c-8.922-4.422-19.703-.844-24.156 8.048-4.438 8.905-.828 19.719 8.047 24.155l108.016 54a18.005 18.005 0 0 0 16.094 0l99.938-49.969 99.969 49.969c2.531 1.267 5.281 1.906 8.047 1.906s5.514-.641 8.045-1.906zM91.406 204.562l95.25-58.016 41.328 39.125-110.265 80.579L148 281.969 247.953 232a18.005 18.005 0 0 1 16.094 0L364 281.969l33.234-14.375-88.375-82.094c-.859-1.031-1.672-2.094-2.656-3.062l-95.562-90.359c-2.578-2.469-5.531-4.25-8.578-5.609-.188-.094-.344-.188-.516-.266-1.172-.484-2.375-.828-3.578-1.172-.641-.156-1.234-.406-1.891-.516-1.031-.234-2.047-.297-3.047-.406-.844-.062-1.672-.188-2.516-.203-.859 0-1.688.094-2.516.172-1.078.062-2.125.125-3.172.328-.359.062-.703.188-1.047.266-3.141.703-6.281 1.797-9.188 3.594L62.234 156.672c-13.75 8.391-18.375 25.891-10.328 39.094 8.063 13.25 25.735 17.172 39.5 8.796zm239.438-56.812c0-27.688 22.453-50.125 50.125-50.125 27.642 0 50.078 22.438 50.078 50.125 0 27.656-22.438 50.094-50.078 50.094-27.672 0-50.125-22.438-50.125-50.094z"/></svg>