<svg xmlns="http://www.w3.org/2000/svg" fill="#fff" width="512" height="512" viewBox="0 0 512 512"><path d="M436.797 206.219l29.719 51.484-314.297 181.453-29.719-51.484c16.484-13.875 21.188-37.984 10.047-57.312-11.156-19.327-34.375-27.28-54.672-19.952l-32.391-56.109L359.781 72.844l32.391 56.094c-16.484 13.891-21.188 38-10.047 57.328 11.156 19.328 34.375 27.281 54.672 19.953zm-116.859-38.766c-4.562-7.578-14.405-10.031-21.983-5.453l-141.609 82.781c-7.562 4.562-10.031 14.406-5.484 21.969l44.391 76.422c4.562 7.578 14.391 10.031 21.969 5.484l141.609-82.812c7.594-4.547 10.047-14.375 5.484-21.969l-44.377-76.422zm19.64 87.485L217.016 325.5a4.612 4.612 0 0 1-6.359-1.578l-35.812-62.156c-1.312-2.203-.625-5.047 1.578-6.358L299 184.844c2.188-1.312 5.047-.609 6.359 1.578l35.812 62.141a4.638 4.638 0 0 1-1.593 6.375z"/></svg>