<svg xmlns="http://www.w3.org/2000/svg" fill="#fff" width="512" height="512" viewBox="0 0 512 512"><path fill-rule="evenodd" clip-rule="evenodd" d="M433.689 418.042H241.02c-21.247 0-38.475-17.224-38.475-38.473V276.211c0-13.729 7.294-25.627 18.115-32.432 11.075 28.424 28.377 29.479 32.776 30.634 28.21 7.412 42.595-8.359 42.595-28.769.002-2.502-.686-5.126-1.813-7.907h110.07c8.032-1.809 14.042-8.955 14.042-17.532V184.18c0-9.941-8.059-18-18-18h-90.774l-35.437-36.536h144.187c19.881 0 35.998 16.117 35.998 35.998v71.278c0 2.473-.252 4.628-.727 6.507 11.099 6.75 18.585 18.844 18.585 32.785V379.57c.002 21.248-17.224 38.472-38.473 38.472zM259.704 304.891c-19.125 0-34.628 15.503-34.628 34.628 0 19.123 15.503 34.627 34.628 34.627 19.123 0 34.627-15.503 34.627-34.627 0-19.125-15.504-34.628-34.627-34.628zm155.203 0c-19.123 0-34.627 15.503-34.627 34.628 0 19.123 15.503 34.627 34.627 34.627 19.125 0 34.628-15.503 34.628-34.627.001-19.125-15.503-34.628-34.628-34.628zM260.12 223.709c-5.884.616-26.066-17.842-60.822-57.208-.94-1.064-15.156-.538-15.156-.538 0 75.31-.544 133.369-.544 213.916 0 27.059 5.404 56.488-15.253 56.628-23.503-.254-19.973-19.053-19.973-46.003v-80.426H130.5c-2.313 46.739.02 45.094-.497 96.604-.169 17.705-2.059 29.849-17.5 29.849-.32 0-.616-.009-.936 0-19.332 0-17.377-28.253-17.377-55.62V165.963H76.93c-1.993 19.424-1.082 32.663-1.082 53.734 0 22.448 4.793 34.787-11.704 36.315-.59.045-10.156.072-10.696.072-18.662 0-12.512-13.939-12.512-36.387 0-47.38-8.291-73.318 20.623-89.593l42.89.238 68.672-.268s37.831-.398 38.365.149c49.608 50.863 65.336 65.651 65.162 79.421-.083 6.791-9.602 13.34-16.528 14.065zm-91.903 212.823c.05 0 .079-.023.128-.025.081.002.131.025.214.025h-.342zm-38.448-324.564c-19.93 0-36.086-16.155-36.086-36.086 0-19.93 16.157-36.086 36.086-36.086s36.088 16.157 36.088 36.086c.001 19.931-16.158 36.086-36.088 36.086zm144.537 342.236c0 9.941-8.059 18-18 18h-18c-9.94 0-18-8.059-18-18v-18h54v18zm180 0c0 9.941-8.059 18-18 18h-17.998c-9.943 0-18.002-8.059-18.002-18v-18h54v18z"/></svg>